/* XPM */
static char *_678798908976[] = {
/* columns rows colors chars-per-pixel */
"64 64 85 1 ",
"  c #020202",
". c #1C130E",
"X c #3E230D",
"o c #3D3412",
"O c #44260F",
"+ c #42280F",
"@ c #4A290F",
"# c #522F0F",
"$ c #45330F",
"% c #442A11",
"& c #4A2D12",
"* c #532E13",
"= c #453212",
"- c #4C3214",
"; c #533314",
": c #593617",
"> c #543917",
", c #5A3A17",
"< c #503718",
"1 c #593618",
"2 c #573A18",
"3 c #5D3E19",
"4 c #613F1D",
"5 c #623F21",
"6 c #2E4314",
"7 c #2A4B16",
"8 c #334918",
"9 c #2D5C15",
"0 c #2E5E19",
"q c #345713",
"w c #325E16",
"e c #305319",
"r c #335E1A",
"t c #3A5E1B",
"y c #2D6115",
"u c #2F6119",
"i c #336216",
"p c #35631C",
"a c #39651D",
"s c #35691E",
"d c #3A691E",
"f c #366521",
"g c #3A6521",
"h c #366921",
"j c #3C6A22",
"k c #3D6C28",
"l c #3E7124",
"z c #4F4719",
"x c #5B4416",
"c c #504518",
"v c #5E411A",
"b c #62451C",
"n c #66491E",
"m c #6A4B1F",
"M c #60541A",
"N c #615B1D",
"B c #6E5A1F",
"V c #41651F",
"C c #406C1E",
"Z c #58442C",
"A c #585623",
"S c #585822",
"D c #664421",
"F c #694722",
"G c #674A20",
"H c #6B4D21",
"J c #6F4F28",
"K c #6F5123",
"L c #715327",
"P c #715D20",
"I c #75562A",
"U c #78572B",
"Y c #77582A",
"T c #795A2C",
"R c #416724",
"E c #416C24",
"W c #4A6925",
"Q c #436D2A",
"! c #417125",
"~ c #437129",
"^ c #727D23",
"/ c #858629",
"( c #8A8C2B",
") c #85B432",
"_ c #B6E942",
/* pixels */
"Ejajfffffphssd!dgjjpag9pfrrfhjjhsdjliiddspprggdWjwrtgaggfhhsjhjs",
"adrpffffsphjpusdggjgggtajgpspphldsssdpdaiwptttadgaddjpp0ppsssssd",
"djppfr0rggggpddifgtgjgfgkjfpppsjjfppjdddjCaagEaqVCRadjspfajjspdj",
"shsfffftgapppjdiefgkgfggggjgapsajjpsjaagaiatEEdtaCVijjhsfsppppps",
"sshshggggftEpgajrtftgasppfjaaagffgsgjsagtadaaRdgiVpsjj0pgasddsap",
"ljhpfptfgagQajgfgftgggappsaapagptgpfjfaaEEVddgataarfjgppppsssipa",
"saaufpfgggrarjfegrkftgjsppaatagrffpspagaapipEEggaapspjgdfsjjjddE",
"djjshpffRRaErjhjfrQt9pjjssaagRgrrfggwadatpaaEEgjpdjjsapapuypjdaa",
"ssjlssjjgjjdapspyjfjffpppjtaggffgjpgjdddat0rrggtrgfhf9dpffsssd!i",
"jsssipjsp9jjtaliddsppfjapgrgtfffgtpsjjE!pdgrtdjaap0ufpdphsshslls",
"sssljssysujlpihs!pdpppjdadsgrfgff0tppajjCVEEEaaEtdkkhhsjfsssslls",
"hsphsshssssppsisjijjarpdgajfffsffrfgpjafaaatadaaaahhhhsuphlussyl",
"lsyhsuhhshppdddjapjEparssffpjj9ffrrfffjptttRRREgadpppsssdjEssswj",
"luslfphplhhjdaddaaaaiEaipps9jj9g0ffkprgrtrttReekajjdapjjdjdajdid",
"lsyuruffhsggpwpitaaiddjpfpspjsfgffgfffgffkktttRtdpppjlsipdppgdda",
"lsshspjuphppgss~aaiaEpgafgsadrQr00fppfrgfftRtttQEidppdidyspsaadi",
"9jdpddrajjRawaCCddaREataapa~syjldsff0fkrtagRgVRailddaapsssdd9ppj",
"ssapaadgwtaatadidadaaRQgjdjlpujjjfpfffffEggtttaaididadpidspppdpp",
"apaatagradgpfjpaaRdttagajsjhuuhffs0pkrffggaaaagaddaCadppsjldjdjd",
"jsgapaapEEarrppdpdttERaEpuhhppfp0juuhff0tpggRdsadVaaagagiddadpda",
"aaatgtajaRdagdaRptaaapqapuhhfjhpukhhssj0fgsaaaasajagtatppaaajsaw",
"pjgdEgtjaEgdagggjtRVqwd9puuffhfyfjjkppjppgpaappapjdattrtdjadEdjd",
"idVERatrjdsspptagaEEaj!dhuhuuhpphphjspajpsaajspdsddatgrrpEaddiaj",
"Eiqatadgjag====$+-======================$==%=$====$$%=efgjwCjpas",
"RwiaEaVVtE8#**:4b3b:*****,b4v3vvbvbb4bb4*****1bbbb:***opaapspjsj",
"RRdpCVataC***&mKmnb:****ObmmnmmnnnHmmmmmO****,mnbbv@***jsdasuasd",
"dtRVVVCiar***%mmmmm*****+nmmmmHnmmmmmmmm%*****nnbbbX***6pppspsaj",
"d9dEVVWia=;#*bmmmbb*;***xnnnmmnnFmmmmmmm3*****nHmnm>*#;#rppasdja",
"jsiCdVddE*/n@bbbbb:*)N*@vvbbbbnnnbbmmnmmmO;M)*:nbbnH&b(*fffppggp",
"lssdajddo***+bbnmm#*;**XGnnFmmmmmmHHmmnmnX****;mnnmmO***ofgrpajs",
"!ppdilCd-***xbnbb4*****:bvbbnbbnmnmHmnbnm:*****bmbbmv****pgpspjs",
"dawd!liq-**@mmHnn3***#@nnHFHmmmmHmmmHmmmbb@****3mmnmF%***7gppupp",
"!iilliq$***&nnbnb*****ObbbbbmHnbbbbbbbmmmmX*****bbnnm-***-k909jd",
"sdspisd********;;******;*;***;*;;***;*#*;*;*****#**;;#****ufjpps",
"rpppisi****-vbvv:;****%bb43*;bbnbb3b**bbnbO*****4bbbn;****wsuppj",
"ffd!!dV#;**-nnmHb*****%nbbb*:bbbbbbF**bmHmX#****bbbbb-****Ejfgjd",
"rpsqiaC#***-bnbvb*****Ov3bb&1bbbnnnJ;*mmLm+*****4bbnb;****frprrr",
"ggdaadC#***&nmnnb****#&nnmb**JHmvbbF**mmmn+;****bbbmn>****srpfgj",
"gtpagap****;mnnmb*****%nGbb3**K3 3J*;:bmnnO*****3bbbb;****gaajpj",
"Rgrtaas****-vnvv4*****-Hbbnn-*3< =D*Obbbvb%*****bnbmn>****tjajqd",
"grtQgrp****-nnnnb*****&mmnn3**J; &F;&bbnbn%*****nKKmn:****ppgspg",
"gtfgpja****-mFmmm*****&nnnn-*3Hb.bFF*3nnbb+*****bbnnb;****ppgjgk",
"tfgf9dj****-mmmmb*****&nnmHx&*bF GD**vnbbb+;****bbvvv<****prffff",
"0fgkrpa****-nbnn4#****-HmFnn;**4Z4**-nmHmb%#**;*bnmnn>****apffr0",
"f0rf0pp****%nnnnb*****&mnnnmm;&;1*&%bbbvbn&;****bbbbb<;***dppffk",
"fffs9pg****&nHmmm*****-bnvvnbb3X*+>mmmnnmb+*****4bbbb>#*;*dqtffk",
"uffkfgg***;&bbbbb*cW;*&bnGnnvbbvDnmHnnnnbm%*;Rc*bbbmF>*&**gappef",
"g0efpgp*A:*&bbbbb*^_x*-bbbvvvnbnbnnvbbvbbb&*x_^*4bbbv;*:A*dgjgrf",
"gjjgffr*K1*%Gbbn3*****&bvbbvbvbbvbbnnmmmnb&*****3bbbb-;;P*aajsfj",
"jjjpfgg****%bDbvb*****%nmnnmnmHGbnnnnnnnnm@*****bbbbb-****gtgffp",
"gjsrfRg****&bbbvv*****@nmmbbDnbnbHmmHHFmmm&*****bbbbbv**#*aphupf",
"psprttg***ODnbnnb-****>nnmbmnnbbbnnbbnbbvv3*****bmmmmmO***aajfuf",
"p0pffff*@&:bvvGvv>XXXXbbvnGGGbDnbnnbbbbnGnv>OXX+bmmmmmn@&*ffhkhu",
"fppgaer*KJnHHKHGGHKHHKHHHHHHHHKLLLLITUTUYYYILTILLITUTUITI*ffjkfu",
"gtpgrwt*******-*;*****;#-**;&****;*******#;*#**#**********ukffpp",
"frgjadEEdCitggfrspdajspisdpjjEaaCiajdVEipadddaidadERaVjjpgffrgfp",
"gjjaddsdaajpspawuuhsjEjdpsppjdpaaaaVEVCagaEadCddtgEgpppt0gffffpg",
"gajhjdssEpasapppffphwspjyspsEgiadCEEaaddgrgECidEtgddaagapsftkgja",
"jphujpshswaj!pppffpp0pphsjfajjpaaagRRatdjpddjdddgaagdggg0pfsjppg",
"h0fpsupjjpappijdkuffjfhpjggppapgaaadEdptjsdsdddpaaaaadgafgs!dprg",
"f0ffrspfspjjdipif0rrkjhhgfftfgpjjdipdapddidCliidaaarpaaajdpdddpp",
"ffgk0jtpgsjdpyslgarafhufp0khjjfjjjdipadEdiCldiadgdaapppajss9spsp",
"frfkpfppppljspajjgadppppfukkjlsdpadsdddddidaddRqjatahjssdddpjshs",
"grkgpshsddjp9pjjdraadpspkhjppsipdpddiddiaqdddigggprtfhssCi9pspyp"
};
