/* XPM */
static char *_678798916036[] = {
/* columns rows colors chars-per-pixel */
"64 64 157 2 ",
"   c #010101",
".  c #0E0A0B",
"X  c #110907",
"o  c #130E0B",
"O  c #1F1307",
"+  c #1E1409",
"@  c #241707",
"#  c #271A07",
"$  c #2C1B07",
"%  c #23160A",
"&  c #26190A",
"*  c #2D1D0C",
"=  c #301F0E",
"-  c #2C1B11",
";  c #321F10",
":  c #2E200D",
">  c #32200E",
",  c #3D230D",
"<  c #352211",
"1  c #3B2514",
"2  c #362A12",
"3  c #3E2915",
"4  c #3F2518",
"5  c #3F2819",
"6  c #2D3D10",
"7  c #3B3711",
"8  c #373914",
"9  c #2F2A2E",
"0  c #411E0B",
"q  c #44250E",
"w  c #4B270F",
"e  c #452A0F",
"r  c #48280F",
"t  c #422714",
"y  c #432A14",
"u  c #4A2D13",
"i  c #412719",
"p  c #442A19",
"a  c #4B2D1C",
"s  c #532E12",
"d  c #582F13",
"f  c #433116",
"g  c #4C3214",
"h  c #443B14",
"j  c #4B3B15",
"k  c #46351B",
"l  c #4C331A",
"z  c #4D3B19",
"x  c #543114",
"c  c #5A3315",
"v  c #533B16",
"b  c #5C3C16",
"n  c #553619",
"m  c #5A3619",
"M  c #513C19",
"N  c #5C3D1A",
"B  c #653716",
"V  c #633917",
"C  c #643B1A",
"Z  c #693D1B",
"A  c #4D2D20",
"S  c #4D3020",
"D  c #693D20",
"F  c #354214",
"G  c #314E16",
"H  c #394D1A",
"J  c #2E5C15",
"K  c #2F5E18",
"L  c #305313",
"P  c #325E16",
"I  c #385D17",
"U  c #345219",
"Y  c #3D531B",
"T  c #325E1A",
"R  c #3C5F1B",
"E  c #2D6115",
"W  c #2F6119",
"Q  c #336316",
"!  c #396516",
"~  c #35631C",
"^  c #39651D",
"/  c #35691E",
"(  c #3A691E",
")  c #366521",
"_  c #3A6621",
"`  c #366921",
"'  c #3C6A22",
"]  c #3D6D29",
"[  c #3D7123",
"{  c #444215",
"}  c #4E4117",
"|  c #414916",
" . c #454418",
".. c #4E4119",
"X. c #464D1A",
"o. c #4A4C1A",
"O. c #5C4416",
"+. c #514119",
"@. c #5E421B",
"#. c #524D1A",
"$. c #42561A",
"%. c #4B551C",
"&. c #455A1D",
"*. c #4A5A1E",
"=. c #53591D",
"-. c #5D5D1F",
";. c #63451C",
":. c #6A431E",
">. c #66491E",
",. c #694A1E",
"<. c #71471F",
"1. c #704B1F",
"2. c #69561C",
"3. c #40651F",
"4. c #406D1E",
"5. c #4A5620",
"6. c #475B20",
"7. c #4A5C22",
"8. c #575B22",
"9. c #5B5C22",
"0. c #664720",
"q. c #6C4321",
"w. c #664920",
"e. c #6B4C20",
"r. c #734524",
"t. c #7A4723",
"y. c #734B21",
"u. c #7B4A24",
"i. c #765224",
"p. c #7B5224",
"a. c #775927",
"s. c #745F28",
"d. c #7E5D2A",
"f. c #436522",
"g. c #416B24",
"h. c #416D29",
"j. c #576124",
"k. c #5D6226",
"l. c #417124",
"z. c #427028",
"x. c #646720",
"c. c #6A6627",
"v. c #666A20",
"b. c #706527",
"n. c #7B6126",
"m. c #756D25",
"M. c #75672A",
"N. c #7C632A",
"B. c #814C26",
"V. c #844F28",
"C. c #855028",
"Z. c #895429",
"A. c #835A28",
"S. c #95572E",
"D. c #83632B",
"F. c #89642D",
"G. c #7F9B2C",
/* pixels */
"g.' ^ ' ) ) ) ) ) ) / / / ( l.( ( ( ] ~ ^ ^ J ! ` ~ T ) ` / [ [ K ( l.[ Q Q ( ( / ~ ~ I _ _ _ g.f.P T R _ T _ _ ` ` / / ' ` ' / ",
"^ ( T ~ T ) ) ) ^ ~ U y { Q ! ( ( ( ' G g x g Y ] ) ~ ~ ~ ~ / h x G ~ / ~ / ( ^ Q L 7 x g F ! ' ( ^ _ _ { s  .K ~ ) / / / / ! ' ",
"( ' ~ ~ T ) T T ' ^ H y s { ( ! ~ ^ ' 8 u d x X.' ' ~ ~ ~ P h s x g 6 I ' ( ( ^ 4.$.r x s h I P 4.4.3.{ s c X.) ) ' ] ' / / ` ] ",
"/ / ) ) ) ) ) ) _ ) o.V C @.%.$.$.$.5.O.V C C #.6.*.7.6.%.#.V B V V N %.&.%.&.8.*.#.B C C @.=.%.%.=.%.;.C Z X.` ~ ~ ~ Q ! Q ~ ~ ",
"/ ( ` ` ` ` ) R _ Y @.c u u 3 f i f f y u a u f k k l k 3 g a a u y u y 3 f f 3 t y , t e 3 3 2 , f 2 p y n @.6._ ( ~ ( ` ~ ~ ~ ",
"' [ ` ~ ) ~ ) T _ %.z 1 % & % & & * * - = * % & < 4 ; - % = ; < - & % ; - * * & - * + % & % & & % $ & ; % = D 9.~ ~ ^ / ~ ~ ! ( ",
"/ ^ ^ W ` ~ ) f._ 7.z ; % = % % * ; * ; 1 ; & * 1 i 4 ; * ; 4 4 ; ; & ; ; = < * * * % * * & & * @ * * < % & C 9.` ) / ' ' _ ' ' ",
"( ' ' ~ ` ~ ) ) h.7.z < % > * * 1 p = 3 p p > = 3 A a i < 3 A a 3 1 = 3 t 1 1 2 1 < : : : $ $ : $ < : 3 & * N 9./ W Q / ' _ ^ ^ ",
"/ / ' ' ~ / ' ' _ 6.z ; & > * : < 3 = 1 p 3 = & 4 a a p 1 ; A p i ; = 1 1 1 1 < 3 2 & & # $ * * * = = 4 & & N 9.~ ) / / ~ ( l./ ",
"[ / / / ~ ! ' / ~ Y z 1 % = $ > 1 3 ; 4 p 1 = * 4 a a y = 1 a a i 1 < < < 1 < < 5 < * & * * : * * 1 = 1 & - N 9.` ` / ` / [ [ / ",
"/ / / [ ' / / E / $.z < & > : * 1 p = 1 p 1 = = 1 p p p 1 1 A a t 1 > 1 < 1 < 1 1 < * * * < > > = , 1 1 & - N k.) / / / / [ / / ",
"[ W / ` / / ` / / &.z > & > * * 1 p = 1 p 3 * * 1 p a p 1 < a a p < = < 1 < < 1 3 < $ * * * > * = ; ; 3 & - N 8.W ` [ / / / E [ ",
"[ W W [ ` ~ ` ` / &.z < & < * : < 4 * 1 a 1 > : 4 p a p 1 < a a i < < < 3 < < 1 t 1 = * > $ * * * > > 1 % < N 8.( ' h./ ( ( K ( ",
"` / W [ ~ W ` W [ &.z < & < * : 1 p * 1 a 1 > < 1 p a a 1 < a p y > > p 4 < < 1 p 1 * * $ * * : = > * 1 % * N k.( ' ( ` ' ( ^ ( ",
"[ / W / ~ ~ ) ) ' R z * & > * * < 5 = ; p 2 * < 4 p p p 3 = a i t ; > 5 3 < > 1 i 3 & * # * * : > > * > % & N 9.~ / ! ~ ' ~ ^ ! ",
"[ / ~ / ~ ~ _ ~ T 6.z > % < * < 1 t > = 3 1 < * 1 i p p < < a p 3 ; $ 1 p < * 1 p 3 = = # : * : * > > < + < N 9.E / W ~ ' ! ^ ^ ",
"E ' ( ^ ( ^ ~ ^ ' *.z ; % > $ > 1 1 > > i 3 > = < 3 p p 1 < a i 3 = * i p > * 1 p 3 < : & * * : * > $ = + * N j.~ ' ' ~ K ~ ~ ' ",
"~ / ^ ~ ^ ^ ^ ^ P &.z = % = * * 1 1 < < i i > = 1 3 p p 1 < i p 4 ; * t p > * < i 1 * < * : * : > : * > % - N 8./ / ! ~ ~ / ! ^ ",
"' ~ ( ^ I _ _ ~ ^ 5.z < % > = > 3 1 = > t t = = 4 3 p p 1 > i p i ; * 1 3 = * 1 p 1 : : : : $ < > > > > % ; D 8.( ' ' ( ' ' ' ' ",
"~ _ _ ^ ~ ^ ^ T g.7.z = O * * * 1 > = > t i > = 1 3 5 a 1 > p p 5 > * 1 3 < * 1 p 1 : : $ * $ > * > > > % - m 9.! ) ' / ( ~ ^ ~ ",
"^ ( ^ I _ R R ' ^ 7.z = @ = > * 1 < > = 3 i = > 3 3 p p 1 1 p a p = $ 1 t < = 1 p 1 : < $ : : : > > = 1 & ; D 8.! ( ^ ~ ' ~ ' Q ",
"P g._ _ h._ I _ ^ *.M < % * > * < < < ; t p > < 1 4 4 a 3 1 p p p = : 1 p ; < 1 p 1 > < * > * - > > = 1 % ; N 9.) ' ^ ( h.! ' ~ ",
"^ ^ _ ' f.^ T ^ _ *.z = O & = & > < = < 4 p < < 4 4 4 p 5 < 4 p p < - 1 p 1 = 2 3 1 > < * : & * = > < = & = m 9.^ ' ^ ( ( ~ ^ ' ",
"' ! I ^ I ~ f.' ' &.z 1 @ % @ @ & * & * ; ; * & ; ; < 1 1 & ; 3 < * & < ; * & - ; - $ & # & % @ * = = * % ; N 8._ g.P ' ' ! ( ~ ",
"g.P ~ ^ g.^ ^ 3.I 8.e.C u t t 3 y t t t a a t y u a a l p y u a a y i y l u t y u t t t t y i e p l y a y n r.9.^ ~ ~ ` / ' / ^ ",
"f._ ^ ^ g.3.R R _ c.Z.r.:.:.Z :.r.:.:.:.r.r.:.r.r.r.r.t.r.Z r.r.r.q.q.q.r.r.q.q.r.q.:.:.q.q.q.Z r.r.q.r.r.r.S.M.^ ' ~ ` ~ / ~ ( ",
"( I ^ 3.3.3.g.I _ N.C.< & & & * = = # * i 1 : > 4 4 i p ; & 1 3 4 < & 4 i 1 * ; < = & @ * < * # i 3 < 1 < < u.n.T ~ ~ ~ ~ _ ' ( ",
"' P 3.z.3.3.z.^ U a.q.& : < * > 1 = = 1 i 3 < 1 t i 3 p 3 * 3 t p 1 * 1 p 3 ; < 3 1 & * * ; = = t < 5 4 1 : Z a.Y ~ ~ ~ ~ ~ ' ( ",
"' / ! ' ( ^ ! ! k.w.y = > ; > = 1 * < < 3 3 = 1 p 3 t p 3 * p i i 3 * 4 p 3 = ; 4 1 & * * 3 > $ 1 1 i 1 1 > t q.c.) ~ ~ ~ ( ^ ~ ",
"[ / / ( ! 4.( ( N.q.* < > > * > 1 > 2 > 3 1 < 1 3 4 i p 3 * i t p 3 < 1 3 i 1 = 1 3 = $ > 1 3 & * < t 2 1 < * D A.) _ T ~ ( ' ~ ",
"[ ~ ~ ( ! ( l.-.A.N < < > > * > = $ < < 1 1 < < 1 1 3 p 1 > 3 3 p p > 3 p t < > 3 3 : $ > < 1 * > = 3 1 < > * m Z.M.) ~ ~ ~ ' ' ",
"( ^ P ( [ [ ! n.B.l 4 1 : > * = * > < 5 1 1 ; 1 t 4 i a < * 1 i t t ; 1 i p 1 < i p : $ = < = * = < < 1 1 = = t r.D.] ~ ~ W ~ ~ ",
"h.Q ! [ [ Q P F.C ; 1 2 = * % = * * = 1 < ; = < 4 4 4 p < & < 4 1 1 * 1 4 i < ; 3 1 * & & ; * * & ; 1 = = * = ; m D.] J K J ' ( ",
"~ ( / Q Q Q ^ d.C.t.t.u.u.u.u.u.u.t.t.u.u.u.u.u.u.u.C.C.u.u.C.u.B.B.u.V.u.C.u.u.B.u.t.t.t.t.t.t.u.B.B.B.u.y.t.t.V.d.T ) ] K ! / ",
"~ ~ ~ / / Q ^ O.Z Z c b p.u.i.y.<.Z B Z Z c b q.y.e.y.i.y.y.y.y.y.y.y.y.y.1.i.u.i.y.N c C Z C B r.e.y.y.i.C c Z Z +.P ~ ~ ~ ~ ' ",
") ) / z.z.( ! j s s q u >.;.;.;.b s u s u q u O.;.;.@.@.@.>.;.;.;.;.>.;.>.>.e.w.>.;.e q d u s s b @.;.;.>.e r s s z z.' ~ ) ' ' ",
"T ~ ~ ~ ! ^ ! } s d q u >.>.>.;.C s s d s q u b 0.;.w.;.;.>.>.w.:.>.>.,.,.,.,.e.e.;.g q s s s s b ;.;.>.,.g r s x j _ T ~ T T T ",
"_ _ ^ ^ ! ! 4.} c s q u ,.>.>.>.;.s s s s q g @.;.@.;.@.;.;.;.@.g @.>.>.>.>.,.,.e.;.u q x s s x C ;.>.>.,.g r s x j ~ T ~ ) _ ' ",
"_ T I ^ ' ^ Q j d s e g ,.,.;.;.N s s u x q g @.w.;.;.0.;.;.;.v . v ,.>.>.>.>.>.e.N u t s s x s @.>.>.>.,.x q s d j _ ^ ^ _ ~ _ ",
"f._ I ~ ^ ^ ~ j x s q g ,.>.;.;.C s s d s q n ;.>.>.w.0.;.>.>.l   z >.:.>.>.>.>.>.V u q s s s s @.;.,.>.e.g y d s z ^ _ R _ P g.",
"_ R R h._ I ~ j d s r g ,.,.,.>.@.s s s s q x 0.>.>.>.>.>.>.e.n   g w.w.w.>.;.@.;.@.u q s s s s ;.e.2.,.,.x r s d j ~ ~ _ ~ ~ ] ",
"_ T ) _ R _ ) j c s r r ,.,.2.,.;.s s s s q g @.,.,.>.>.,.,.0.N X N >.e.>.>.>.>.;.@.g q s s s s N :.>.;.>.g r s d j ~ ~ ^ ] ) ] ",
") _ _ ) J ' ' j x s q u i.>.>.>.;.s s s x q n ;.,.,.w.,.,.>.>.@.o ;.>.>.>.>.;.;.;.@.u q s s s s ;.;.;.;.>.g r s d j Q ~ ) ) ~ ) ",
"T T _ h.~ ~ ~ j x s e g >.;.>.;.b d s s x q g >.e.e.>.>.>.;.>.e.9 0.,.,.,.>.w.e.,.O.g q s s s s ;.,.,.>.,.g r s d h ( ! ) ) T K ",
") K T ) J T ~ z d s q g e.,.,.e.0.s s s d q x @.>.>.,.,.e.>.;.>.>.>.,.>.;.;.>.;.>.;.g q s s s s C ;.;.;.>.g r s x j ^ Q ~ _ _ _ ",
") ) ) ) J ~ ' j d d q u 2.,.e.e.;.s s s s q g ;.>.;.;.;.;.;.>.>.2.e.,.e.,.,.>.>.,.;.u q s s s s b ;.;.;.;.g e s d j ' I T ) ) ] ",
"T ) _ ] ) _ ) j s s q u 0.>.@.;.C s %.6.v w v ;.>.,.>.>.;.;.;.>.e.,.>.>.;.;.;.>.>.@.g q z f.5.s ;.>.>.>.,.x r s s z ^ ^ _ T K T ",
"_ K J ~ ~ ^ ~ g m.2.0 u >.;.>.w.@.s x.G.O.t g @.;.;.;.O.@.;.;.;.>.>.>.;.;.;.;.@.;.@.g 0 O.G.v.s N ;.;.O.>.w q 2.m.g _ _ g._ T ) ",
") ' _ ~ ) T T l ;.N q u >.w.;.>.N s b O.c r g @.>.;.;.;.;.;.;.;.;.;.;.;.>.>.>.>.,.O.g q c ;.b s N ;.;.;.;.g q b ;.j ~ ^ ' ~ _ ' ",
"] ] ' ~ _ _ ] l x d , u ;.@.@.;.b d s s s r g O.>.>.>.;.;.;.>.;.;.>.>.>.:.>.>.>.;.b g r s s u s b ;.;.;.;.g w s s j ' ~ _ ) _ ) ",
"' ' ~ ~ ) _ _ j d s e g >.@.;.;.N s s d s r x ;.,.>.>.;.;.0.>.>.;.>.e.w.,.,.>.,.,.;.g , s s d s @.;.;.;.>.b u s c g ! ~ ) W ~ ~ ",
"~ ~ ~ T R ) ) j d q e b ;.;.;.;.>.q q s w = g >.>.>.>.>.>.>.;.;.>.>.e.>.,.>.>.e.,.>.b e w s u q @.>.>.>.>.>.r q s j ~ ` ` ) W ) ",
"~ T T _ _ R _ g c r g ;.>.;.;.;.>.g e u u t O.;.;.>.>.>.>.;.;.w.>.,.,.,.e.>.,.>.,.>.>.N g c x g >.>.e.e.e.e.v u s h ) ) ] ] ` W ",
") ~ ~ _ T P T j b C ;.;.;.;.C ;.C >.v N b Z ;.;.C ;.C ;.;.;.q.0.>.;.:.,.:.0.>.:.>.:.:.;.C @.@.;.>.:.0.e.0.>.:.;.m j ) ) ) ] ) ~ ",
"_ T _ _ T I ~ ..+.+.v M +.M ..M } +.+.+.} j ....} } } j j j +.+.} +.+.} +.+.+.+.M +...+.+.+.+.+.j v +.M v v +.+.M  .~ _ ) ) ~ ~ ",
") T _ _ _ _ ' g.^ 4.! Q ^ _ ~ T / Q / ( ( ( ! ~ ^ ^ ! ] ' g.^ ! ( ! ^ ' ^ ' g.Q ~ ! ( ( ' ! Q ' ^ _ g.g.^ ^ ] ' ~ ` ) ) K ' ~ ~ ",
"_ g.g.~ ( ! / / ( ^ ' ~ ~ ~ ^ K W W ] ~ ] ' g.! W / ~ ~ ' ^ I ^ ! ^ ^ g.3.g.( ^ _ ^ g.^ ( 4.( ! I f.g.' ~ ~ T ^ K ) ) ) T ) ~ ^ ",
"_ ~ ' ~ ' ( ^ / ] ! ( ~ ^ ~ ~ ! ) ` ~ ~ P ( ~ / ~ ` ! ~ ] ( ~ ^ 3.g.g.3.( ^ 3.^ _ I _ ' ' ! ( g.~ ^ _ ( ^ ^ _ ^ ~ ) ' ~ ] ] ' ^ ",
"] W ` ) [ ~ ~ ' ~ ~ ~ ' ] ! ~ ~ ) ` ~ ) K ~ ~ ` / ' ) ^ ' ( ~ ^ ^ ^ g.g.g.^ ^ ^ ' ~ ' ( ' / ( ( _ _ _ ^ ^ _ f._ K ~ ~ ~ _ ~ ~ _ ",
"` K ) W / W ~ ] ' ~ ( ~ ~ Q ' ' _ T ) ~ ' ` ) / ] ' _ ~ ~ ^ ^ _ ~ ^ ^ ^ g.^ I ^ ' / ( ! ( ( ( ~ ^ ^ ^ ^ ^ ^ ^ _ ] ) ~ z.( ~ P _ ",
") T ) ) T ~ ~ ^ / ~ ] ' / ~ ~ ~ ) K T T ] ] ` ` ) ) ) ~ ~ _ ~ ' ' ' ~ ! _ ^ ~ ' ( Q ( l.[ Q Q ( ^ ^ ^ I ~ ~ ^ ^ ' ( ~ ( ( ( W ) ",
"T ) _ ] K ] ~ ~ ' ~ ( / ! E / ' _ ~ K _ ~ ` W ` K T ] _ ' ] ~ _ ' ' ~ Q ! ~ ( ' ( Q ( ( ( Q ^ ^ _ ^ ^ ^ ^ ~ ^ ~ _ / / E ( ~ ~ ~ ",
") T ) ] ~ ) ~ ~ ! ~ ' ' ( K / ' ' ' ~ _ I ~ ~ ~ ) ~ ] ] ' [ ~ / ~ ! ( / ( ! ( ( ! ~ ' ! ! ' _ I ' _ ^ _ _ ) / / ( ( ( ~ ( / ' / ",
"_ ) _ _ ~ / ` / / ` ] ! K ~ ' ' ( ^ ^ ~ _ ! ~ ~ ] ~ ` ~ / / ~ / _ ~ ( ( / ( ( Q ^ K ' ^ ( ^ _ f._ T P I ~ / / / [ ! J ~ ) / E ~ "
};
