/* XPM */
static char *_679413923350[] = {
/* columns rows colors chars-per-pixel */
"64 64 173 2 ",
"   c #121A19",
".  c #1C1819",
"X  c #221616",
"o  c #2D1417",
"O  c #291419",
"+  c #351314",
"@  c #2A3939",
"#  c #39373A",
"$  c #4F0E14",
"%  c #550D11",
"&  c #5D0D10",
"*  c #431114",
"=  c #6F0907",
"-  c #6D0B09",
";  c #740005",
":  c #7F0007",
">  c #730409",
",  c #700909",
"<  c #790B0A",
"1  c #7E050C",
"2  c #66160A",
"3  c #6A140B",
"4  c #641C0D",
"5  c #761D0F",
"6  c #7E1C0E",
"7  c #6C0810",
"8  c #671F10",
"9  c #7E1C11",
"0  c #5A240E",
"q  c #5B2E11",
"w  c #4E3C16",
"e  c #533510",
"r  c #593213",
"t  c #513A14",
"y  c #5F3618",
"u  c #612210",
"i  c #6D2B11",
"p  c #752611",
"a  c #792010",
"s  c #673415",
"d  c #6D3416",
"f  c #633815",
"g  c #6F351D",
"h  c #7D351C",
"j  c #443538",
"k  c #4E333A",
"l  c #5D323B",
"z  c #793E20",
"x  c #792D3A",
"c  c #3F4515",
"v  c #3C4D16",
"b  c #3D4418",
"n  c #364F18",
"m  c #2D5C15",
"M  c #2E5E19",
"N  c #3B5416",
"B  c #325E16",
"V  c #375418",
"C  c #3C531A",
"Z  c #335E1A",
"A  c #3B5B1C",
"S  c #2D6215",
"D  c #2F621A",
"F  c #336216",
"G  c #376817",
"H  c #35631C",
"J  c #39651D",
"K  c #36691E",
"L  c #3A691E",
"P  c #3A6A14",
"I  c #39701F",
"U  c #375F20",
"Y  c #3E5C21",
"T  c #366521",
"R  c #3A6621",
"E  c #366921",
"W  c #3C6A22",
"Q  c #3E6C28",
"!  c #3D7123",
"~  c #444314",
"^  c #4C4315",
"/  c #424913",
"(  c #404F1A",
")  c #534314",
"_  c #514F16",
"`  c #564318",
"'  c #554C1B",
"]  c #5E4C1E",
"[  c #5B441A",
"{  c #415716",
"}  c #495317",
"|  c #45551B",
" . c #4F571C",
".. c #435A1C",
"X. c #4B5B1C",
"o. c #56551E",
"O. c #6B401D",
"+. c #42631E",
"@. c #406C1E",
"#. c #5E4620",
"$. c #5A4822",
"%. c #4C5E22",
"&. c #525A21",
"*. c #724526",
"=. c #724C27",
"-. c #7A4D26",
";. c #754A28",
":. c #7B4D2B",
">. c #426522",
",. c #416C24",
"<. c #436E2A",
"1. c #417125",
"2. c #437129",
"3. c #810007",
"4. c #830109",
"5. c #8E020B",
"6. c #8F0C0D",
"7. c #910007",
"8. c #990007",
"9. c #94020A",
"0. c #9A000A",
"q. c #910A0C",
"w. c #86140D",
"e. c #8B120E",
"r. c #83190E",
"t. c #9E0F13",
"y. c #8D1715",
"u. c #801E11",
"i. c #8E1E15",
"p. c #9B1315",
"a. c #9D191A",
"s. c #961414",
"d. c #A1040E",
"f. c #A30511",
"g. c #A30913",
"h. c #BC071A",
"j. c #BD091C",
"k. c #A01417",
"l. c #AE141E",
"z. c #8A2D1E",
"x. c #8D321F",
"c. c #843820",
"v. c #892B3B",
"b. c #942939",
"n. c #9F283C",
"m. c #AE2829",
"M. c #AC352F",
"N. c #A93A2F",
"B. c #B6243B",
"V. c #BC3432",
"C. c #CD0C24",
"Z. c #D20E26",
"A. c #D50E29",
"S. c #CB1021",
"D. c #D51129",
"F. c #E3122F",
"G. c #E51330",
"H. c #EA1432",
"J. c #E01F3E",
"K. c #EC1C3C",
"L. c #F41D3C",
"P. c #FF193D",
"I. c #C52F32",
"U. c #CA2D35",
"Y. c #CF213C",
"T. c #DB2637",
"R. c #D02C33",
"E. c #DF2439",
"W. c #C23233",
"Q. c #E72339",
"!. c #E9233B",
"~. c #83472B",
"^. c #8A4A2E",
/* pixels */
",.W J W E R T T E H T K K L 1.L L W ,.H J T B H T T Z R E W W ! K L W ! H F L L H H H A J R J ,.>.B A Z W A R E T E K K W E W K ",
"J L Z H M T U E H H E W H D G L J J W T R R Z J W T H H H K E E L K K K L H L L H F J Z A J J @.J J R J W H H D H H E K K K K E ",
"L W H H Z T Z Z W T R W H H L G H J R R R >.T R ,.T T H H H K E W T H H W J L J L L J J R ,.H B J @.@.J L W E H T W W L K K L W ",
"K K T T E T U J R J H H H W J H A T U R R T J T T W W R H J H R W W H H W H J W J J J F >.1.J J J @.+.G W W E H T H H H H H H H ",
"K K E E E T T R R A J >.H T J R U Z T R R T H H H R W R J J R R T W H R W H J W J J J J J W J >.G +.H H Q W H D W J H L L H H J ",
"W ! E H E H U U R R T <.R W T T R U Y T T R L H H T L H J J T H T T T T W T J J ,.>.>.L J J J J J J H T W W H H H H K K H G H J ",
"K J L D H H T R T R Z J Z W R M T T >.T A W W K G H J A H T J Z Z T H H H J W J R A G H ,.,.J R J J H T H W K L E T E W W L L >.",
"L W W H E T T U <.>.J ,.H R R W U U <.Z m H L W K K W H R >.R A Z T R R F J J J Z Z J W ,.,.R R H R R W H H H J H D S K W W J J ",
"K L W ! K K W W W R W J J J H G F W H W T T H H H >.Z T R R Z T W >.J J ,.J W L J H Z Z A R R T A R H E E m E H H E K L K L 1.F ",
"E E K K G H W E H m W W H J ! D K L H H T R W J J R Z >.;.M.T.L.A.f.f.a.z >.,.1.Z L R Z Z ,.W J J Z M D D H E H E E K E K ! ! K ",
"K K K ! W K K S K D W ! G H W G Q H L H H H W R J $.V.L.P.P.P.P.A.0.0.0.0.d.i.t >.@.>.,.,.J J ,.J J Q Q E E K W E K K K E E E ! ",
"! G D E K H E K K K K H H K D K ,.F L W H B H J R.P.P.P.P.P.P.P.A.0.0.0.0.0.0.0.t._ J J J J J H J H E E E Q K H D E E K I G D I ",
"! K D E E H E E G E H H J L L W L H W ,.H J o.U.P.P.P.P.P.P.P.P.A.0.0.0.0.0.0.0.0.g.] >.>.>.@.J J L H H H K K G L W ,.K K J F W ",
"E K K E K H H D ! K E Q J L L K J J J J F :.L.P.P.P.P.P.P.P.P.P.A.0.0.0.0.0.0.0.0.0.0.g U A A R J Q W H H H W W W W L K W W G J ",
"! K D D H M T T E E T R Z H H F A J H J ..!.P.P.P.P.P.P.P.P.P.P.A.0.0.0.0.0.0.0.0.0.0.f.} A R J @.H H H W W K K F L H H W J J J ",
"! E G K H T E D H E H H R H K 2.T J F J W.P.P.P.P.P.P.P.P.P.P.P.A.0.0.0.0.0.8.0.0.0.0.0.k.C R ,.W F L H H L F L S K H H J H J G ",
"D W W J L J F J W W >.J Z J ,.I L P J V.P.P.P.P.P.P.P.P.P.P.P.P.Z.0.0.0.0.0.0.0.0.0.0.0.0.a.>.R L L G L J L H I D L L K m H H W ",
"H K J H J J L R B H L H H J L G J J A L.P.P.P.P.P.P.P.P.P.P.P.P.Z.0.0.0.0.0.0.0.0.0.0.0.0.0.( J H L G L J L H D K G H H H L H H ",
"W H H R J R R H J >.J J T R J J J W #.P.P.P.P.P.P.P.P.P.P.P.P.P.Z.0.0.0.0.0.0.0.0.0.0.0.0.0.w J L W J J J +.J H L W ! L L W W L ",
"H L R J Z H J Z R ,.R Z H H H J A R I.P.P.P.P.P.P.P.P.P.P.P.P.P.Z.0.0.0.0.0.0.0.0.0.0.0.0.0.p.H L >.J +.J R J J H L L J W H L J ",
"H W J J R A J W J ,.R J R W J >.Z Z !.P.P.P.P.P.P.P.P.P.P.P.P.P.Z.0.0.0.0.0.0.0.0.0.0.0.0.0.f.J H W >.J J J Z T H L J H W H L F ",
"H >.J J ,.R A R J W W J R T W R R &.P.P.P.P.P.P.P.P.P.P.P.P.P.P.Z.0.0.0.0.0.0.0.0.0.0.0.0.0.0.o.H W J J A J A Z J W J W ,.J W J ",
"F J J >.>.J H J W L E H H H J Y >.-.P.P.P.P.P.P.P.P.P.P.P.P.P.P.Z.0.0.0.0.0.0.0.0.0.0.0.0.0.0.c.G L K J A A Z Z J W J L L G H W ",
"@.J B J J J +.J W H L W H J R Z A ^.P.P.P.P.P.P.P.P.P.P.P.P.P.P.Z.0.0.0.0.0.0.0.8.0.0.0.0.0.d.c.! I H F H J H T W >.B L W H J J ",
">.B H J ,.H >.J A ,.1.K ! K H Z K ~.P.P.P.P.P.P.P.P.P.P.P.P.P.P.D.0.8.0.0.0.0.0.0.0.0.0.0.0.0.z.L L E E Z T H Z H L H E K E L L ",
"W >.J H ,.J J A +.,.W G G H H W H ;.P.P.P.P.P.P.P.P.P.P.P.P.P.P.Z.0.0.0.0.0.0.0.0.0.0.0.0.0.0.h H D K E Z T R W H L H E H K H L ",
"J J W >.+.@.+.A J J J K F H H ,.H &.P.P.P.P.P.P.P.P.P.P.P.P.P.P.Z.0.0.0.0.0.0.0.0.0.0.0.0.0.0.' K H D D H Z T T H H H H H K W W ",
"L B J ,.+.+.,.G J J H L G L J G J L Q.P.P.P.P.P.P.P.P.P.P.P.P.P.Z.8.0.0.0.0.0.0.0.0.0.0.0.0.f.R T D E D R R T M Z H H J H R W H ",
"W K H W L L L L >.W J L H J J L J >.I.P.P.P.P.P.P.P.P.P.P.P.P.P.D.0.0.0.0.0.0.0.0.0.0.0.0.0.s.L T T E D E R R H T R T H J W H H ",
"! K G L J L L G L W L J F J L L J J *.P.P.P.P.P.P.P.P.P.P.P.P.P.Z.0.0.0.0.0.0.0.0.0.0.0.0.0.f H H H E D M H T H R T R H H R W L ",
"! H H L G @.1.J F J L H L K J L H H R L.P.P.P.P.P.P.x v.L.P.P.P.C.0.0.0.0.% * 0.0.0.0.0.0.9.N H B H D D H H E T D H T Z H H W H ",
">.J F L 1.L G P P L G H ,.H F L H H J M.P.P.P.P.P.Y.@ @ k J.P.P.C.0.0.4.O     > 0.0.0.0.0.y.L W J K D K T Q D M m H W H T H K D ",
",.F G ! I F B L J H K L J B J R H H H Y I.P.P.P.P.n.j @ @ # B.P.C.0.7 .     X & 0.0.0.0.p.A L P W Z H W L K K H m W Q m m m W K ",
"H L K H G H J A P G I >.>.J +.J H H W J ..E.P.P.P.P.K.l @ @ Y.P.C.0.1 .   O 5.0.0.0.0.g.B H G J R H J H H W ! K W E Z T Q H H K ",
"Z T H H K G G J @.e.w.w.a  .J T ,.R L W K U.P.P.P.P.P.L.b.l L.P.Z.0.9.+ $ 9.0.0.0.0.0.p.Z L J ,.Z Z H N 0 2 3 2 W K M H H F H W ",
"E T W 1.1.H @.,.W 6.0.0.0.9.r.{ >.J J H W U.P.P.P.P.P.P.P.L.P.P.C.0.0.9.0.0.0.0.0.0.0.p.H L H W T V 4 ; ; ; ; - H Q 1.W T J W L ",
"U H H H F P +.@.J J 6 0.0.0.0.r.J L J L H U.P.P.P.P.P.P.P.P.P.P.C.0.0.0.0.0.0.0.9.0.0.p.J W Z T W 2 ; ; ; ; 4 H H J R Z H Z Z Z ",
"H R J H G @.@.L G L ~ 0.8.0.0.0.X.L L H E U.P.P.P.P.P.P.P.P.P.P.C.0.0.8.0.9.0.0.0.0.0.p.L W H J %.> ; ; ; ; b H 1.J J Z H T R W ",
"R A Z J L J G G K W | 0.0.8.0.0.d H F H R V.P.P.P.P.P.P.P.P.P.P.C.8.0.0.0.0.8.0.0.0.9.i.J L L L r ; ; ; ; ; C Z H H J T J >.H W ",
"<.J Z A J H H L D W ..0.0.0.0.0.6 T W W W ' P.P.P.P.P.P.P.P.P.P.C.0.0.0.0.0.0.0.0.0.0.~ H K P L 8 ; ; ; ; ; V W J J J R H J B W ",
"T Z A <.R Z H J L L +.8.0.0.0.0.6 W H D H M m.G.H.G.H.H.F.H.P.P.C.0.0.9.9.9.9.5.9.9.5 H ,.J L S 4 ; ; ; ; ; A ! W J H H W T H W ",
"T A H R J W J H W K ..0.0.0.0.0.9 W W T E E ` 0.0.d.0.0.d.j.P.P.C.8.0.3.; ; ; ; ; ; w J J H @.! 4 ; ; ; ; ; A W H J H F R W E Q ",
"T T R H m W W J Q H N 0.0.0.0.0.r.J W H W Q ) 9.0.0.0.0.0.j.P.P.C.0.0.4.; ; ; ; ; ; ~ R B J H W 4 ; ; ; ; ; V H L W H H T T T U ",
"A H R Q Z H H W K H N 0.0.0.0.0.9 H H m H R ) 0.0.0.0.0.0.j.P.P.C.9.0.3.; ; ; ; ; ; ^ >.H W H W 4 ; ; ; ; ; C m H W L H U T D M ",
"T M Z T M H H R ! K N 9.0.0.0.0.r.>.J J H D ' 0.0.0.0.0.0.j.P.P.C.0.0.4.; ; ; ; ; ; ^ W J J H T 4 ; ; ; ; ; C H m W L H T T T Q ",
"E T T T m H L Q L W A 8.0.0.0.0.r.,.R J H H [ 0.0.0.0.0.0.j.P.P.C.0.0.: ; ; ; ; ; ; ^ J J J H H 2 ; ; ; ; ; A H H W J A Z H T R ",
"M T T <.T R R J S K J 0.0.0.0.0.q.| J H H H u.0.0.0.0.0.0.h.P.P.C.0.0.: ; ; ; ; ; ; 2 F L @.L v = ; ; ; ; ; A M H R R J J T Z U ",
"R M M H Z J J H W H B q.0.0.0.0.0.9...J H d 0.0.0.0.0.0.9.j.P.P.C.0.0.4.; ; ; ; ; ; ; e F L N , ; ; ; ; ; - D T M T J R W T D U ",
"T W W H U H Z T R W R i 0.0.0.0.0.0.9.z.w.7.0.8.0.0.0.0.0.j.P.P.C.9.0.3.; ; ; ; ; ; ; ; 2 4 = ; ; ; ; ; ; q J J ,.J J J W T R W ",
"W <.T H T Q R Q R R J | 6.0.0.0.0.0.0.0.8.8.8.0.0.0.0.0.0.j.P.P.C.0.0.3.; ; ; ; ; ; ; ; ; ; ; ; ; ; ; ; = ..J J @.+.R H R H T T ",
"W W R Z T R R U R T Z U s 0.0.0.0.0.0.0.0.0.0.0.0.0.0.0.0.j.P.P.C.0.0.4.; ; ; ; ; ; ; ; ; ; ; ; ; ; ; ; t J H W L H J H T Z D E ",
"H H H H U U U A U A R R A 6.0.0.8.0.0.0.0.0.0.0.0.0.0.0.0.h.P.P.C.0.0.3.; ; ; ; ; ; ; ; ; ; ; ; ; ; ; = A W W W W H H R W E D H ",
"H M Z T T U U R Z T W W H ( 9.0.0.0.0.0.0.0.0.0.0.0.0.0.0.l.P.P.C.0.0.< ; ; ; ; ; ; ; ; ; ; ; ; ; ; > ( J J K G H R E T E Q E M ",
"E H J T Z A J W T T R J J H | q.0.8.0.0.0.0.0.0.0.0.0.0.a O.P.P.C.0.0.w u ; ; ; ; ; ; ; ; ; ; ; ; = | R J J W W H T T E E Q T H ",
"T T T T Z Z J L Q W J B W W R Y p q.0.9.0.0.0.0.0.0.r.~ B C L.P.C.0.9.A J c 3 ; ; ; ; ; ; ; ; = 0 C J L A J L K H T H E T T H H ",
"U U T R J J >.>.L >.J G J R Z A K G _ 6 6.9.9.w.f { H W L W &.W.S.s.{ W L >.W { e 3 = ; - 4 / J J J >.>.G J >.L H T H T Z T T H ",
"R W W J L L H L L J L H H H J B D E E H Q ,.,.L H K H H W L H J J J W ,.@.>.W J R J >.L L I L L J R >.W H H H A M R E T U T J R ",
"R J W K W L K K W H L H L H H H D T H H F H H E D K H H Q L H A L >.,.>.J J L J R Z W >.L J L W A R W L J J T J H T R H Q T W J ",
"W D E H Q H E E J F L Q 1.H H H T E H T M H H E K W T J W L H J L J L >.>.J J J R H W L L L L L J J R J J W R R M H T H L H H R ",
"Q M D H K D H W W H H H F H L W Q M T H W T E H W W R H H J H W J J J J 1.J A J W J L G L L L J J J J J J J R J E E H 2.L H Z T ",
"T D T T Z H H H K H W W L F H H T M M Z Q E E E T T T Z H T H R W W H H L J H L L F @.1.L F F L J J H J H H J J Q L H L L L H H ",
"U U T R Z W T H W H W L H S K W R J Z R T T H E H M W W W Q H W L L H H H H L 1.L F L I L G G L W J H A H H J J L K H S L H T H ",
"U U R Q H T K H H F W W W S L W W W J J H H H H E E Q Q W ! H K H H L J L L L L J F L H L L R A >.J J J R W K K L L L H K K E K ",
"T U T Q H K K K K W Q H m H W W J H J J J H H Z Q D W T K L H K J J K L G L P F J B L L J J R R W Z Z H T E K K L G m H T K S H "
};
