/* XPM */
static char *_e4eed651bdd480db4c972df2790c09fSm9UX4hlgD4oelRE[] = {
/* columns rows colors chars-per-pixel */
"64 64 27 1 ",
"  c #2D5C15",
". c #2E5D19",
"X c #325E16",
"o c #335E1A",
"O c #3A5E1B",
"+ c #2E6115",
"@ c #2F611A",
"# c #336216",
"$ c #3B6B15",
"% c #35631C",
"& c #39651D",
"* c #36691E",
"= c #3A691E",
"- c #39701F",
"; c #366521",
": c #3A6521",
"> c #366921",
", c #3C6A22",
"< c #3E6D28",
"1 c #3D7124",
"2 c #40651F",
"3 c #406C1E",
"4 c #416722",
"5 c #416C24",
"6 c #436D29",
"7 c #417125",
"8 c #427028",
/* pixels */
"5,&,;;;;;%>***7$;,6%o: %;O%;,><1*=,1*#===#%o:424,XOO:O;;>>**,>,*",
"&=o%;;;;&%;,*%*=;:,;::o*,;;%#%*>=**&*#,&##&oOO&=&&&:,#;o%*>>****",
"=,%%;.oo,:;:*&&#OO:::4::,,;%%%*,,*%%,&&&4&&&:4&X354&3,**;:,,>,=,",
"*>*;;;;::&%%o,,#o;;::;::;:,:%**::,%*,*=4&&#&48=&&3$%,,;>;#%%*##*",
"**>>>;;;;:&4%:::oOO::%%*%:,&&&:;;,;:,%&:*&&&&4&4O$%*,,%.:&&**:&*",
",,;*;;O;:O:6&::;:;;::::%%;&&&::%;;%;,*:&444=2&&&O&%:,;%%*%**###&",
"==&+*%;:::o&o,;.:;:;o:,*#*&oO:&oo;%*&&:&&O#*45&:::%;%,*&;*=,,,:4",
"=,,*;%;O64&6#:;,;O6O &=,**,&&4:oo;:&X&&&&o&=,5::#,:,%:#&;++*,,&&",
"**1,**,,::,&&**#X,*,;;%%&,O:::o;::&:,==$:;oo&;;;o:o,; ;#%;**%=7#",
">***#%,*%.,,O&1#*=%%o:,&#:o:O;;;:%&&,,57#:&oX44:&%.@@*:*;>***11*",
"***1,**+*@,1#*1#,*&*%#,:&:*;;o;;; %o%:&,42454&:<O&<<>>*,>*>**111",
"1#%>**>****%**#*5#,,&o*,,&,,;;*;;o::%=::&&O&&:%O&&>>><*@@>1***+*",
"1*@>;%>>*>*%&,=,&%,5#*#:%%;%=,.;;o;;;o,;&&O:444:&,#****%=,,**&+,",
">*@1*%*@1*;,&&=*&&&&#5,#;%*.=,.:.;;;;%;oOoO4OOo4&,,:&*,,=,=*,,&$",
"1*@*%.;;>*::o#*#O:&#&4,#;;#%,*;:;;;;:;:%;<:OOO4O,&%#,,=#*&%%,=&&",
"1*%*%*:@%>;%:%&8&:#&4*&;%&*,,X6o .;;%;o:O;:4OO:6,#,##,#=+*%*:#&&",
"#,,#4=#:4,,&o&33=$&44:&O&&&7*+<1=&;;.;:@O::4:44&*=$,&=%*#-,:X%%,",
"**&&&&,:o#:&%&=#&&&&&,6:,:,7*+,;,;o%;;;;,::OOO&&#=&=&=%@**##*&*&",
"*%&&&&:%&,&&%:&&:4&O&:4&*%><oo,;%;+*<;;;::&&&&&&==&&&4%%$,,*,&&&",
":*&&o%%o44&oo&*&%:&&4:&4*%*>+;;%+<@@;;;.o%:,4:&*=4&2&:&:*&,*=*&*",
"&:&&::&:&4&*::::oOO&&OX&%+;>>>>%@<><%%< ;:,&&&*:&,&4O&oO%$&*,&=#",
"#4&&4:o4&,,,,,::4&43XX& %.;@;>;%;>,,*%>*&:&#&*#:#,&&&Ooo:,&=5&,&",
"&&&44&O&,&**%%&O:&45&,5=;o*@@>%@:%*,:%*5%&%&4&%,*=&&O&o;&,&==#*&",
"3#X&O&2=,&&:%::OO42&5&#7<;>>>1*,=*o;::#8::&%:#*,-1*#o&oO4:X4=*&&",
"4X#:5&&2&45$1**o*#%:o:::o%:,#,**,*5$,=X&5*,:#*%*>>*>o:%o*&%*%,*&",
"4,&&42OO23,*%##,%#,:,#&o%;%o,,.* %&==&&$,X#:#%%%%@**o:;,*:*;%**:",
"3#:2224O&&&*%%&7#*4,,&&&%:,*#.@>.;:,,,7,,#%::o%X***@%o:%#%%*%*=,",
", 26226&:&#,*$&&&,,,==&3,%%&***@%.;.&,$=:,#,,%%*;@;@:;;@o;%&*&,&",
",#*:&=&$44&,%*&&:4#**,*,;5X&=,@*>;;;,5>=#,&&,%*,;o;@:;,o::;%%:&*",
"11*$&=,$&,=&#&$=&&*o=&:*%,*,*,*>.;;;;%%%o,,*:&##o;>*o.%;::;%%&:*",
"<#*,%-7##*&&=*%=*%:%:*;+**#,#11+;>;;;.%;*&&%:*%*#%@@%*;;@;;o%%,*",
"=&X=73$$$$&#,&#&%*&,%:* #7=$=#*>>;;;;oo;&.%o*=*,=*@**>;. %,%%.*%",
"5#$13##&$#=&&O&&;o*:;%o;;,<%@%%,@;;%;;;**:::;*$$,oo,***#+<, . ,*",
"*,*+$%&&&*=,2&4&%*&&%o%,o%*,*;::o%%o@;*%&::%#**&:*&*%,,,<;o;,%*=",
"o;*%%##&3:$&&22&4,:,:::,%%**#*&#;;%%;;;&;::&#=&4oo%%%;,*>>.*%%%,",
";;,77*2335%&&3X&3&#*,:&%,*=&*=,#;o%%;;;%Oo&:%,%<:%:4,::;#58,%:::",
";o%###33&=&53,X&2&&$*#%&*=*#,,=*%%**o;;:;O4:&,o:,%::Oo;o*&:o%oo.",
"o:&&$333#=&31-&34=&*=,::*&#o:&**:&&*;;,4;O64,,%:8,::;::o5&%o;%:,",
":OO&=&%%*33#*-,4&*%*,,&O,,&%%%%,*&&$&:::O::O&*=$,%:::;OoX&:&&:%,",
"4:o%&%&*+33X*1=#o;;,,,4&*#::oo%%=&$=,&:&:4:&**-$6oo::Oo<:&&,o4X,",
":o:6:#&:#,8$=36**<@@;+%;***;>*%##&44;ooo,*&O4#=+&&&:,>*<,=%:;;;,",
";OO:%:&o,*,3=*%%+,,;>>*,;;;**,&,#%:oOo<:+*&&&&71,*Xo%*>,%*#%:,;<",
":;;; &,,,*&%&#,:&&,%><%:,<,*+**=:&:o&O:%*:o4o&*>:,5,oX&*&=##;;;;",
"o;;4o*&::#***#;%&&#X;,+%%*>%%*&&,,4:::<;,,#,X&*:,&45:## *,,%;;o.",
";.o;.%%:1*#=&*&=&4:#o%>>:%&%*==&,*:Xo;;;*%&,&&:,%%*:&&:*o=&&O;;<",
";;;; %,,1=$=#=,:=5:&%%,*5&,&#,=&;##*o%;;*%,&&*##%#,4&%&&%,=XO;;;",
".;;6%::&@*=&&,% $:&*#**.2#&,=,5,:;:8,,%o%o*#&4=*,:,=:,%.%::&;O.;",
":. ;o:&%>%.%%:,,**,:&5,,&X&,*=:#%%+<*,;;%%,&#==*.#%#*%+;.;::,:o;",
";,,*;Oo;;<;oO;;;&=&=&=&&&&4=:.o&:&&,&&4:&O4:O&&o:=*&4=&24&&&,%:,",
",6:%;<:<::;:<:O:5,*&*&#*3&#*%##%##,,=,,&4o:&o:&&,,&&4:&&=3,o:;;;",
":,*oo::::Oo;O:::,&#&*&*&&&#=%:##o%o&&&:,:OOOoO&&#&O#&&&&,&:;;.%;",
"%*%oO::OOO;:%o::&&:,*&&=O&=:*::,&**%o*,,:&4:oO&:24=2&:,,=##,,*@;",
"%.%;O:O:.;,4;o;:#&,:=#=,=&=%*&=#*==*:%*::&44&4&&:&&&&O**%,;;;<>+",
";%o:oo&:;;,&&%%;*&=$##*7#&&#*%&&*&&*&#&&44&&=4&&&243&&=,*;;,,<;@",
";;&:oo&&,5&#,,:;**=*=#==&*&oXo&53$&:&,432&&%3=#*#O&&#&==%;%;;;;%",
";o:::&:4=4&#::Oo**$&,$##&&*,&,&&=%&,=4=&##33=&o;::442&4=o;;;.:;%",
"&4:*&$&*&&,%*#&.@*>%,,4&#*%%,:#&=&=4453#:&4&=3,$#:,,#%%O.,;;;:&&",
":&,;,&**,*&&&%&#;;%*X&**@*%*5:%&4354=&2::o,,=*$5&:4=:%:&%*:o;<,&",
",+>%<%*>&X&,4**#;;%;.%%>*,:&,,#&&:,44&&&:%,,==&=:::&:,:4.%;*,#%:",
"<@@**@*<,**%*#,,;;%;,>*;,,:o*&&:#&&&5&o&,*,$===&&&&&&&:&;:*7=%o;",
";;;oo;%:*%,=&#*#:..o<>>>;;;o;:*,,,%#,&#==#=3$##=&&O&o&#&,=%===.;",
"o;;<o,%o:*,**.*,:%o;;>@;%.,,,,%:,:&**&=5=#3-=$%&:&&&&*&::**#&*&%",
"O;:<o;*%##,1,X&,,=*:#*o%;%<<,,**%#=**$=$&#=*=,:O4:o&:>**==,.=*>>",
";o::%**>,,,%.%,,&&&O&&*%<;>;**%*&&==&==#&X&=&&::,#oO>>**3# %**+%"
};
