/* XPM */
static char *_678798106620[] = {
/* columns rows colors chars-per-pixel */
"64 64 126 2 ",
"   c #1D261F",
".  c #1E2A1E",
"X  c #1F3A17",
"o  c #1F341A",
"O  c #212F1D",
"+  c #233F17",
"@  c #21331A",
"#  c #233B19",
"$  c #1B1E23",
"%  c #1C2123",
"&  c #222325",
"*  c #272823",
"=  c #2A2B24",
"-  c #232728",
";  c #272928",
":  c #292B2A",
">  c #312E27",
",  c #343226",
"<  c #393625",
"1  c #30322D",
"2  c #353831",
"3  c #3D3E32",
"4  c #234B0D",
"5  c #2A4617",
"6  c #254A14",
"7  c #264318",
"8  c #29421A",
"9  c #2B4C18",
"0  c #2D5316",
"q  c #2D5C15",
"w  c #2D521A",
"e  c #2E5D19",
"r  c #325E16",
"t  c #31541A",
"y  c #335E1A",
"u  c #395E1C",
"i  c #2D6115",
"p  c #2F611A",
"a  c #336216",
"s  c #3B6B15",
"d  c #35631C",
"f  c #39651D",
"g  c #36691E",
"h  c #3A691E",
"j  c #305722",
"k  c #375F20",
"l  c #3F4134",
"z  c #366521",
"x  c #3A6521",
"c  c #366921",
"v  c #3C6A22",
"b  c #3E6C28",
"n  c #3D7124",
"m  c #40651F",
"M  c #406C1E",
"N  c #474127",
"B  c #534A29",
"V  c #5B522B",
"C  c #414335",
"Z  c #4B4C3A",
"A  c #65582B",
"S  c #6B5E2B",
"D  c #416722",
"F  c #416C24",
"G  c #436D2A",
"H  c #417125",
"J  c #427129",
"K  c #72642C",
"L  c #545640",
"P  c #5B5E41",
"I  c #616445",
"U  c #6B6D4A",
"Y  c #73754D",
"T  c #767850",
"R  c #86732E",
"E  c #8D7A2E",
"W  c #917B2F",
"Q  c #8E7A31",
"!  c #947F30",
"~  c #7F8054",
"^  c #98822F",
"/  c #AB9132",
"(  c #B29733",
")  c #B79C33",
"_  c #BD9E33",
"`  c #C4A535",
"'  c #CAAB35",
"]  c #D6B237",
"[  c #E8C136",
"{  c #E6C039",
"}  c #EEC63A",
"|  c #F0C739",
" . c #F5CC3A",
".. c #F8CE3A",
"X. c #FED337",
"o. c #FFD43A",
"O. c #858756",
"+. c #94955C",
"@. c #9D9E62",
"#. c #AAAB67",
"$. c #B2B36C",
"%. c #BABB6F",
"&. c #BBBC70",
"*. c #FFD741",
"=. c #FFDA47",
"-. c #FFDD4D",
";. c #FFDD51",
":. c #FEE155",
">. c #FFE55B",
",. c #CDD079",
"<. c #D5D57B",
"1. c #FBE462",
"2. c #FFE864",
"3. c #FFEC6C",
"4. c #F4E870",
"5. c #FFF57B",
"6. c #DFDE81",
"7. c #E3E381",
"8. c #EBEA86",
"9. c #EFF088",
"0. c #F2F187",
"q. c #FFF780",
"w. c #FFFA85",
"e. c #F0F189",
"r. c #FEFE8E",
"t. c #FFFF90",
/* pixels */
"F v f v z c k z c d c d g v n s h v F d d x q d x d y z c v c c g h n n a a h h g d d u u d f F D r y u v y x c c z g c v c h g ",
"f h y d k z z z d d c v d d h h f x v x x x u d v z d d d d c n h h g v h d c f d r f u u d f m h f m f F a d y d z c h g g g c ",
"v c d d d p y y v x x c f c h a d d x x x x x x b x z d d d d c v c a d c f h f M f f f D F d r M D M f v v z d z c v h h c h v ",
"g g c z c z k d c f d d y v c a u d k x x x x x x v v c f d c x c v z d v d h D f f f a D J f f s M h a v v c c z d d d g d a d ",
"g h c c c c x x x k u F d x d x k k k k x z f d d x v v f f x x z x z c v f f x f f f f f D f D u f d f b c d p x h d g g h d f ",
"v v c d z d k k x d x G f F x x x k x x k v f d d d x d f f x d x x d z v c f f D D D h f f f f u f d d v c a d d d f h a d a f ",
"g h h a z d z x x x u f r b z e x x x x u c c g g a x u u x d y y z d d d f v f d d d d D F f x x x a z d v x v c z g v F x v F ",
"h v c d c z z k G D d F u c z v y k G u q d h v g g h d f D x u d z x x a f f f d u f h J F x x f f c b d h a f g p i g v v f d ",
"g g n v h g F c x c v f f f g g a c x v z z d x d x y x x x y c x F d x F h s s x d e y y x x z u x z c c q c d d z g g d h n g ",
"c g g g d a v g d r h v u f n a h c d d d x v d f x u x k z z z x y d f v v b H u x z u u M v f d d e p d d c d c c g g g n n g ",
"g g g n v g g i g p v n a a g g J a v a d d v v f f f v y z v z z e d y d v f c M f v F F f f F u f b b c c g v z g g g s n c c ",
"c g g c g d c g g g g d f g a g F a v v d a d v c d v c d x d z z y x x w 7 @ # 5 u m f f f f d f d c c c v g p p c n g g g p n ",
"n g g g c d c c g c d d h v h v f f h F a f a x d z c a c F e z k y w $ $ : l 2 & $ $ 8 G D D f f h d a d d c d h v b g g g r v ",
"c g g c z p c p n c c v f c c s f f f f a F c a x d d q v c r c e w $ Y r.t.t.t.r.r.Q $ % t y x f F c c h a v n h v h g v h f h ",
"n g i g a d z c c d z x d a a d d d a f h b v a x c z d v d z x z $ O.t.r.r.r.t.:.o.o.o.B $ u x M d f d v v g g a h d d v f f s ",
"v g d g d z c p d c z d x z f J u f f f v d x f z c a v h y F d 6 $ t.t.t.&.3 < ! o.o.o.o.A $ F v d h d d h a h i g d d f d f d ",
"p v v f h f a f v v D d y d F M h f f D D f d f f f h J a i n v @ Z r.t.#.$ O o $ $ ' o.o.o.= O a v s v f h d g i h v c a a d b ",
"a g f d f f c x r f f f d f s h f f f f f D G D x c v J d a b z % T r.r.: # c z v # $ ` o.o.{ $ d s f f f v d p g c d a d f a d ",
"c d f f f x x d f x x d x x f f f v f u u x f f c g v c p p c z . I r.r.% 7 z z x x + $ o.o.o.= @ h f f f D d d s v n h c v b h ",
"c h x f u d d u D F f y d d a c d x f f F D u F d p c c d z c d + : t.t.P % c p y z x % E o.o./ % D f f f v d f g h h d v f v a ",
"d h f f d u d F f v x f x c f D u u f f f u r f a d c c c c c d e $ r.r.e.$ j e d v x # , o.o. .$ D f D f u u y a h f d v f f a ",
"d D f x G f u D h D v h x x x D x f D D r r f q d e p z z c z p d % I r.t.+.$ 9 d c d @ , o.o.o.% f f x f u y u x v f v F h c f ",
"a f m D D f u d v h x f d d d k D f F D f v F h z p p p d c g p c t $ <.r.5.^ $   8 # $ ` o.o.o.$ d g v u d u k f v f M h a f v ",
"M f r f u f f f v d h c d f x u r D m f F f a F b v c c c n c v h e o $ t.o.o. .S * = ) o.o.o.o.$ v a a u d y z v D r h h f g f ",
"D r d f F f m m r F F h n c a y h a d x u d x z y y d b a v d c O $ $ $ 1.o.o.o.o.o.o.X.o.o.X._ % g c c y d d y d f d c d c g c ",
"D v f d D m f u m D v a g a c F d y v f v f d d z x a a v v p d $ 8.0.4.o./ = _ o.o.o.o.o.o.o.& o g g c y x x c f c d c d g h h ",
"f f D D m m D r f x h h a d d F a f F v n a f f d x v f d a p g % U w.o.o.& % $ $ A ' | } ( & % p g z p d y z d d z d d d x c h ",
"h r f F m m G f f h a h a h f s d F c v h v f D v d d c d g d e $ $.:.o.o.( % c 9 . $ $ $ $ @ d z p z p x x z d a d d f d x v f ",
"v g a h M f s f F F h h a f f g x F d d g v h M z F a d v b e $ Y 3. .% & < $ g d b d c b a c c p p z p c x x d z x z d f x h d ",
"n g g h f h h h a v h f a f h h f f c a c g c d a v s h g h % l w.o.* % # . y d a v c f c f f d z z c d e d d z x z x z d h c d ",
"b a f n a n H s a f h f c f f h f d c d h d c p c g a h a . ; r.o.V % z x e d f d f f x f h d a a p p g p d z c p d c y z d v c ",
"h f r h H M a s s h f a J a d h d d f D d x d p a J h g @ % r.*.` % j k k y e v x e a a f g g v h g p g c v z e q d v d d a d d ",
"v d s n H a a f s a h g f u d h d d d x z d d z d b v 7 $ 7.;. .$ 7 c d z c c d a b v x z g s s x r a c f a g g q v b q q q v g ",
"d f g a a a f u f g h v m m D h d f c h d y y v e g j % %.3.o.= % a d p p z x d f x x d a a h f x x f f f v n v v z a z v d d h ",
"d z d g s d f f M h f f f m m f F x f D x x x x a e $ O.5.o.S % d z d d z z z x x d f u d v h F y d z d d c v d v c e z d a d v ",
"c z c J n g M F F D f s f m r f D f d f v c z d b % L t.o.` $ y d d d d k z z d k y f f d c d v x d x v c h v f a b J v z x c c ",
"y y f d a s f M f h s F s h a f M f f g a f d f   1 r.o...% + d d f d a d z z x x k D D h c y z v d k x k y d d d f f y d y y a ",
"z x d f f s M M a h f M n n h M D h f g f v v @ % t.;.o.=   a z f h h h z v F x k k G D v v d x J x x x k x x d J f f y d x x v ",
"x y u f v f a s g h M r n g h F h f a a h c # $ e.2.o.K $ d d c d a h h f x x x u x x f f h h s v d d x x k x y a d x x d v d x ",
"G d u u f h d g a F D r c c h a a d c b b w % ,.5.o.' $ w a x a v v s h h f x d x F x x a g n s G u y D k k k v x f d v u v r D ",
"x y k G x u a f a v H s s F b d d b p p e $ @.r.o.o.$ # g g a d d f F D f u u a c d c f D a n i f f f x c g c n v f d d v z z v ",
"k u d x f v f d v g F n v a d z d v v d % U t.o.o...$ X g x f v d a x y y u x x i d f x f f F h v d r y d g v v d f a d x v c b ",
"x x x d r c v f b d g f h d c v g f v $ 3 t.=.o.o.o.' $ % d d c x x x r u d x d h c u f r f f c v h v D a y d d h v a d z z z z ",
"y y x b y d f v c d d a a d x d f f . - t.>.o.o.o.o.o.o.N $ 5 f F v F u x x b z v c a D d f f c c f F F x d d r d v v d z z e j ",
"c e e z e y d c n g a s a f f c f @ $ r.5.o.o.o.o.o.o.o.o.( $   d f g a d z b c d d h v d d x v d u d v d f v d r v f f d z z b ",
"x z z z q d v F n g h h f v v c 5 $ 6.w.o.o.o.o.o.] ' o.o.o..., $ d d a y d z e g d v f f f a d d d F v f d c f y v f a d u z x ",
"e z x G x x x f d g c h a v d 4 % $.r.o.o.o.o.o.o.$ $ K X.o.o.* % c v J x v d d z d f d f F h a v f h c v v d e d x x f d d e k ",
"b e q d y x d d c d r d d v v $ ~ r.=.o.o.` } o.o.{ $ $ * ..V % d d i b d b z z d d v a a h h h q a d d d d p d y z f x F c y z ",
"z v c f x z y x x b z y d d e $ 8.:.o.o.W $ $ { o.o.| $ $ $ $ y v d f v f f D v f u D x u d f u x h f f D h f f D f d f F z x v ",
"c G x d x x x x x x x z x b d * $ ' o.[ $ 9 @ $ } o.o...& $ 5 u u d c G h v D f f u x x u x f f v v f f D x f f M M v d x d z z ",
"c v f d k x x k x k u k x x f v + $ R & @ v a @ $  .o.o.% # y d q a a d f f c x D u u u y u x f r f d f f f f h v f f d z p d d ",
"d d d y k k k k x y x x u a f D f w % O f g c v % % ..>   c f h g h d d d d c F x d D d u u d x f M m f m v c b f d d z v z p z ",
"d p d z x k x x y d x F d y z c d d v h f a h n F . $ % x d f d h v c x d d f v D f F m f m f f D f f f f f g a d x c z c b c p ",
"x y d x y y d D d x c f d d d z s h h h a a g h f a 7 p d d f f a g h d d f f x D v f f h D f f f m D m f f v h d z z c v b z p ",
"c k d x y r d f b b f a x F x x g g h f h a h h f d d d a a h F v s h c f x D M m f f f M h a d u f f f r f f g d z d v z x d d ",
"z k x x x f D D f M f a f x k y g a h h h h g a d h d v c D f f s a h D h v D f a a f M h f d h f f D D f m D h d c d z e z z d ",
"f D v f h F g h f f c d d f f r z p c g b v F f d g a d v h f f x f f F D D M d x u F h h M h s u x D v d d d d e z z c k z d f ",
"c d b d v c a g J a h f c d d d p z d d a f d g p c d d F f d u F D F v h f f f x d D v F a h b d x v h f d x d d z x d v b v f ",
"v d c p v d g v d a c b F f a f z c d z q d d c g c z f b h d f f f D D D f f f x d h h h h h h x f x f D f x D e d z d v d d x ",
"c p c d g p d c v d f a d a v c b e z d v c z c v v x d d f d v a f f v F f f f c d h h h h h d f f f f f f m x v z g J h a e x ",
"z p z z y d z z h d v v g d d a z e y d b c c c x z z y d x d v v v d d f h d v F a h H M a a h f d d f f d f d b c d h h c a z ",
"k k z b y v d d c f c c a a g n x d y f d z z c d y b v c b d c h v c a a f h F h a n s h a s f D f f d d d d f f g g a h d x d ",
"z k z b d c g d a d v v c a d b v v f f d d a z c p b b v n h h d a h h g h h h f a v a h v x u D d u x x c g g h h h a c g c g ",
"z j b x d d g c h v J a y a v c f d f f x d d d b z c d d c d d c f h h a h s a d r h h f f x x h d u u c c g g M a q z d g i d "
};
