/* XPM */
static char *_678871682763[] = {
/* columns rows colors chars-per-pixel */
"64 64 149 2 ",
"   c #000000",
".  c #1C0102",
"X  c #3D2B13",
"o  c #731E0F",
"O  c #5C230F",
"+  c #5C2410",
"@  c #542712",
"#  c #433011",
"$  c #61220E",
"%  c #6C210E",
"&  c #612210",
"*  c #6C2D14",
"=  c #703317",
"-  c #7F3E1E",
";  c #2E4C14",
":  c #324D15",
">  c #324E19",
",  c #2D5C15",
"<  c #2E5E18",
"1  c #325E16",
"2  c #34521A",
"3  c #3A521B",
"4  c #335E1A",
"5  c #3A5E1C",
"6  c #2D6115",
"7  c #2F621A",
"8  c #336216",
"9  c #35631C",
"0  c #39651D",
"q  c #36691E",
"w  c #3A691E",
"e  c #39701F",
"r  c #224623",
"t  c #264B25",
"y  c #284C2A",
"u  c #375F20",
"i  c #366521",
"p  c #3A6521",
"a  c #366921",
"s  c #3C6A22",
"d  c #3E6C28",
"f  c #3D7123",
"g  c #40651F",
"h  c #406C1E",
"j  c #555C23",
"k  c #6C4B22",
"l  c #7C5126",
"z  c #416621",
"x  c #416C24",
"c  c #436E2B",
"v  c #417225",
"b  c #437129",
"n  c #1B3F6C",
"m  c #3F3766",
"M  c #353A6C",
"N  c #283E73",
"B  c #4F325E",
"V  c #403867",
"C  c #423664",
"Z  c #154151",
"A  c #1A4152",
"S  c #164362",
"D  c #14426D",
"F  c #1A406F",
"G  c #0F4375",
"H  c #0E447E",
"J  c #114374",
"K  c #1B4170",
"L  c #10447E",
"P  c #1B497B",
"I  c #1D5178",
"U  c #214076",
"Y  c #234D7A",
"T  c #264B77",
"R  c #324E75",
"E  c #205277",
"W  c #315177",
"Q  c #3A676B",
"!  c #5A7F5D",
"~  c #547B5E",
"^  c #416B69",
"/  c #416B67",
"(  c #6E6D68",
")  c #736F66",
"_  c #787266",
"`  c #AE1508",
"'  c #B2170A",
"]  c #B2190A",
"[  c #9F1D35",
"{  c #B4192B",
"}  c #A11D35",
"|  c #D50D06",
" . c #ED0707",
".. c #ED0806",
"X. c #E70908",
"o. c #F60406",
"O. c #FF0305",
"+. c #FD0C0A",
"@. c #80401D",
"#. c #894822",
"$. c #995727",
"%. c #9C5A2A",
"&. c #8C632D",
"*. c #866E2E",
"=. c #8A712F",
"-. c #8A7131",
";. c #937632",
":. c #957834",
">. c #AA682E",
",. c #AA6730",
"<. c #AE6C31",
"1. c #B36E33",
"2. c #BD7B39",
"3. c #BA7636",
"4. c #C66D33",
"5. c #C17C39",
"6. c #CA7D39",
"7. c #5E815A",
"8. c #608359",
"9. c #AC853A",
"0. c #AB8437",
"q. c #C5803B",
"w. c #C9853E",
"e. c #C38E3E",
"r. c #CE893E",
"t. c #EE813B",
"y. c #BFCD31",
"u. c #E7F11E",
"i. c #E8F11E",
"p. c #F7FD16",
"a. c #F9FC17",
"s. c #C6D62D",
"d. c #CBD92C",
"f. c #C38E40",
"g. c #D48F41",
"h. c #DC9645",
"j. c #D79946",
"k. c #DB9A45",
"l. c #EB8F42",
"z. c #EA9544",
"x. c #E19B46",
"c. c #EA9846",
"v. c #E49E48",
"b. c #E99F4A",
"n. c #E8A147",
"m. c #E6A14A",
"M. c #E9A24A",
"N. c #0E4480",
"B. c #104480",
/* pixels */
"x s 0 s i p i i a 9 a q 9 s f w w w c 9 0 9 < 0 i 9 9 i a s f f q q f f 8 8 w w q 9 9 5 0 p g x p 1 4 5 s 4 i p a a q a f a w q ",
"0 w 4 9 4 i i i 9 9 a s q 7 q w 9 0 p 9 p s 4 9 s i 9 9 9 9 q a w w q p 0 9 w w 8 1 9 4 5 5 0 g h 0 p 0 s 9 9 4 9 9 a q q q q p ",
"w s 9 9 i 7 < 4 s w i p 9 0 w 8 0 0 p p z p p p s s p 9 9 9 q p p q 9 9 s w w 0 w h g 0 p x 5 8 g h h 0 s p 9 9 i p s w q q w s ",
"q q i i i i u 0 p 0 9 0 9 w w 8 4 i u p p i p p p p s i 0 9 q i p s 9 q s 9 0 s 0 5 0 8 x b 0 8 0 h g 8 s f a a i 9 9 9 q 9 9 9 ",
"q q a a a i p p i 5 0 z 9 i i z u i u u i 9 9 9 9 i s p 0 0 p i i i i i s 9 p p 4 0 0 0 0 x 0 z 8 g 9 9 z s 9 < s p 9 w q w 9 0 ",
"s f a 9 a 9 u u p 0 p c i z i i p u u p p p s 9 9 i 0 0 5 0 p 9 p p 9 i s i 0 0 x x x 0 0 p 0 0 0 0 9 i s s 9 9 9 9 9 q 9 8 9 0 ",
"q 0 w 7 9 9 i p p p 4 0 8 d i 4 p u d p 9 s p s q q 0 8 0 0 0 4 4 i 9 9 0 0 p 0 0 5 8 9 x x 0 u 0 0 9 a a p a w a 9 w s s w w x ",
"w s s 9 a i i u c z 5 x 9 p i s 4 5 c 4 , 0 p | O.O.O.O.O.O.O.O.O.O.O.O.O.O.' 0 0 4 0 w x x p p 0 0 i s 9 9 9 w a 7 6 q s 0 0 0 ",
"q q s s 9 q d w p p s 0 0 0 q q 6 p q s i i 9 | O.O.O.O.O.O.O.O.O.O.O.O.O.O.' w i 9 4 4 0 p p i 4 p i a a , p 9 9 i q w q w v 9 ",
"f q q q 9 9 w q 9 6 w d 5 9 f 8 w w 9 9 i i s | O.O.O.O.O.O.O.O.O.O.O.O.O.O.' x 9 0 0 4 1 s s 0 0 9 < 9 7 9 w 9 a a 7 q q f f q ",
"q 7 q f f q q 6 q 7 f s 8 8 q q s 9 0 9 X.o.o.O.O.O.O.O.O.O.O.O.O.O.O.O.O.O.O.o.o.o.o.o.o.o.o. .5 0 d d a a q s a q q q q f e a ",
"f q q q q 9 a q q q q 9 0 q 8 q x 8 s s  .O.O.O.O.O.O.O.O.O.O.O.O.O.O.O.O.O.O.O.O.O.O.O.O.O.O.O.0 0 a a a a q 7 7 a f q q q 6 e ",
"f q 7 e q 9 a a q q 9 9 w p w s 0 9 s x  .O.O.O.O.O.O.O.O.O.O.O.O.O.O.O.O.O.O.O.O.O.O.O.O.O.O.o.0 w 9 9 9 q q q w s s w w 9 8 s ",
"a 7 7 f q 7 i 9 f a a d 0 w w q 0 0 0 0 % o o o o o o o o 4.l.l.l.l.l.$.. . @ z.l.6.> 3 3 > : 3 0 s p w 9 9 s s w s w q s s 0 0 ",
"f q 7 q 9 7 i a a 9 i p 9 9 9 8 0 0 1 0 O & & & & & & & $ 5.m.m.b.M.M.&.    X M.M.e.z u 3 5 0 0 w 9 9 9 s x q q 9 w 9 9 s w 0 0 ",
"f q 9 q 9 i p 7 9 a 9 9 0 9 q b 9 0 5 0 + & & & & & & & & 5.m.M.M.M.M.&.    X M.M.e.p z 0 5 z x w 9 w 9 8 w 8 w 6 q 9 9 0 9 w 8 ",
"6 s s 9 w 0 8 0 s s x 9 4 0 v h w # # # 3.5.5.* & & <.5.5.h.M.M.M.M.M.&.    X M.M.k.=.=.=.=.=.*.w w w w 0 w q q 7 w w q 8 9 9 d ",
"9 w 0 0 0 0 p i 1 0 0 0 4 0 w 8 w $ & & x.M.M.= & & r.M.M.M.M.M.M.M.M.&.    X M.M.M.M.M.M.M.m.b.q w 8 w 0 0 9 8 q q 9 9 9 9 0 9 ",
"9 9 w 0 0 0 p 9 0 p 0 9 p i 0 0 0 $ $ & x.M.M.* & & r.M.M.M.M.M.M.M.M.&.    X M.M.M.M.M.M.M.M.v.0 w 0 w 0 g 0 9 w s f 0 p w w w ",
"p q i 0 9 9 0 5 z x 0 4 9 9 0 0 9 $ & & x.b.b.= $ $ %.>.,.g.M.M.M.M.M.2.k k l ,.,.1.M.M.M.M.M.m.j j j g 0 p 0 0 8 w w w p 0 w 9 ",
"0 0 0 5 0 u 5 z 0 x 0 0 i i i p 5 $ & & v.M.M.= & & & $ & 2.M.M.M.M.M.M.m.M.q.& & = M.M.M.M.M.M.n.n.M.0 0 0 5 p 9 w 0 9 s 9 w 8 ",
"9 x 0 0 x p 4 s 0 s s s s s z z p & & $ v.M.b.= & $ & & & 5.M.M.M.M.M.M.M.M.q.& & = M.M.M.M.M.M.M.n.M.0 5 5 4 4 0 s 0 w v w p 0 ",
"8 0 0 x z 0 5 0 s 0 w 9 9 9 0 5 0 & $ & 6.w.w.#.- @.@.@.@.w.M.M.M.M.M.k.w.w.<.& & = w.w.w.w.w.r.9.0.0.0 5 5 4 4 0 s 0 w w 8 w w ",
"h 0 1 0 5 0 g w s 0 q p 0 p p 4 0 & & & O $ $ h.M.M.M.M.M.b.M.M.M.M.M.1.& & & $ $ & & & & & & + e v 8 0 9 0 4 i 0 x 1 x s 9 w 9 ",
"z 1 9 p x 0 g g 5 x x 0 f w 9 4 9 O $ $ & & & h.M.M.m.M.M.M.M.M.M.M.m.1.& & & & & & & + & & $ + w a a a 4 0 9 4 0 9 9 a q s q w ",
"p z 0 9 z g 5 g 0 h x 8 q 8 9 s 9 O + + O + + h.M.M.M.M.M.M.M.M.M.M.M.3.* * * * * * * * * + O O 9 7 q a 9 p p i w p 9 p 7 q 9 w ",
"z 8 x g g g h 8 0 0 w q 8 q w x 9 w d p f 9 w e.M.M.M.M.M.M.M.M.M.M.M.M.M.M.m.m.M.M.M.M.h.1 6 9 q 9 a 7 4 4 i i 9 9 9 9 9 w p s ",
"s 1 0 x g g x 8 0 0 9 w 8 w 0 8 0 s w s w w 0 e.M.M.n.M.M.M.M.M.m.M.M.M.M.M.M.M.M.m.M.M.j.9 9 9 9 7 7 9 i i i 9 9 9 9 9 9 p p w ",
"s q 9 w h 0 w w x x 0 w 8 w 0 w 0 s 9 9 q w 0 e.M.M.m.m.M.M.M.M.M.b.b.b.M.M.M.b.b.b.b.m.j.9 q w i 9 a 7 i i i 9 i i i 9 q i w 9 ",
"f q q w 0 w h w 0 w w 0 8 0 w w 0 0 9 9 ..O.O.O.O.O.m L L { O.O.O.O.O.O.O.O.` 9 9 s i 0 p 9 9 9 i 9 a 7 9 4 0 9 p p p 4 9 w p 0 ",
"f 8 9 s 8 e v 8 8 8 w 0 w 9 w w 0 9 p q ..O.O.O.O.O.m L L { O.O.O.O.O.O.O.O.` i w i w 9 q w 9 9 1 9 7 9 7 i a a 9 9 i 9 9 9 s a ",
"s 0 1 w v h 8 h w w 0 8 x 9 8 w 9 9 w p ..O.O.O.O.O.m N.L { O.O.O.O.O.O.O.O.` s i , 9 9 9 p q s w q 7 a 9 s i < < 7 s 9 9 7 q 9 ",
"x q 8 f h 8 1 0 w 8 q w 0 1 0 s 9 O.O.O.O.O.O.O.O.O.m H L { O.O.O.O.O.} L L B O.O.O.O.O.O.O.O.o.i 4 9 0 w q q q , s d , , , s q ",
"9 w q 8 8 0 0 0 8 q w w g g z 0 q o.O.O.O.O.O.O.O.O.m L L { O.O.O.O.O.} L L B O.O.O.O.O.O.O.O.o.s p 0 9 9 s f w s 9 < i d 9 9 w ",
"9 9 9 q q q 8 0 h h w 0 0 z 0 0 x o.O.O.O.O.O.O.O.O.m L H { O.O.O.O.O.} L L B O.O.O.O.O.O.O.O.o.9 9 i 9 9 q s q s i < i 9 8 9 w ",
"i i w v h w h h h h 0 0 0 g o.O.O.O.O.O.O.O.O.O.O.O.m L L L L L L L B.L L H B O.O.O.O.O.O.O.O.O.o.o.O.z s p p 9 9 f b s i p p w ",
"4 9 9 9 8 8 h h 0 w 0 h s w O.O.O.O.O.O.O.O.O.O.O.O.m L L L H H L L L L L L B O.O.O.O.O.O.O.O.O.O.O.O.p u 4 9 9 0 9 0 4 9 9 4 1 ",
"p i 0 0 w w h h 8 w 0 h f w O.O.O.O.O.O.O.O.O.O.O.O.m L L L L L L L B.L L L B O.O.O.O.O.O.O.O.O.O.O.O.p i p i 9 v 0 0 4 9 i 9 d ",
"p 5 1 0 s 0 8 0 8 h h 8 e f c.c.c.c.c.c.O.O.O.M U U y.u.u.~ L L L L L ! u.u.y.N U C O.O.+.b.c.c.c.c.c.p p u 9 9 9 9 0 p 0 p 9 s ",
"z p 4 5 0 9 0 q 8 x h 1 w w n.M.M.M.M.M.+.O.O.U L H d.p.p.7.L L B.L L ! p.p.s.N.L M O.O.+.M.M.M.M.n.M.p u u u z 0 0 0 p 9 z 1 s ",
"p 4 u c p 4 0 0 q w v w w e M.M.M.M.M.M.+.O.O.N L L d.a.p.! L L L B.L 8.p.p.s.H H M O.O.+.M.M.M.M.M.M.i p q a f s 0 9 9 s i i s ",
"u 0 9 p 0 0 0 9 d 9 w h e 0 n.M.M.M.M.M.t.t.t.T H H Q / Q P L L L L L E / / Q H L R 6.6.t.M.M.M.M.M.M.4 9 a a s 9 0 8 9 i s p d ",
"p p p 9 , p s 0 s 9 9 w 0 0 n.M.M.M.M.M.M.M.M.E L L L L L L L L L L L L L L H L B.R M.M.M.M.M.M.M.M.M.s 9 , 9 0 q s 9 9 i i i i ",
"4 u p d 9 9 0 w q 8 w 9 0 8 n.M.M.M.M.M.M.M.M.T L L L L L L L L L L L L L L L L B.R M.M.M.M.M.M.M.M.M.x 0 0 9 , 9 s w 9 i u 4 < ",
"i < 4 i < 4 9 p f q 8 w 8 9 M.M.M.M.M.M._ ( ( P L L H H L L L L L L L L L L L L B.W ( ( _ M.M.M.M.M.M.s 0 0 p 9 8 p 0 0 i i p d ",
"i i i i , 9 p d f w q w 0 x M.M.M.M.M.M.P L B.H L L L L L L L L H L L H L L L L B.B.L L Y M.M.M.M.M.n.x 9 9 s 0 9 s 0 1 4 4 i p ",
"7 i p d 0 i p w 7 q p 0 0 w M.M.M.M.M.M.P L L L L L L L L L L H L L L H L L L L B.B.B.L Y b.M.M.M.n.M.0 s s 9 < 9 i s 0 9 9 < u ",
"p < , i 4 0 0 9 s 9 , 9 9 w :.:.:.:.:.:.L L L L H L L L L S A Z Z Z Z S L H L L B.P B.L P :.:.:.;.:.:.8 9 9 7 9 4 i i 0 x i u i ",
"p s s i i 4 4 p i s 9 4 9 i 9 i w 0 9 w G H H L H L L L L r 9 0 s 9 i y N.L H N.H H L H J 0 0 4 0 w 0 0 s 0 5 0 x 0 0 i z 0 p s ",
"s d p 9 u d d p s p i p d p 0 i x 0 0 w G L L H L L N.H L r 9 9 9 9 0 y H L H N.L L B.H J p 0 9 s s 0 0 x 0 0 g h h p 9 i i i a ",
"w d q 4 p p p u p 0 5 u p 0 0 g x 4 2 4 n n F n K K K D D t 8 9 1 1 9 t D D K n n K n K n 2 5 5 5 0 0 8 0 0 0 w 0 0 0 9 i < 9 9 ",
"9 i 9 4 u u u 5 5 u i u 4 4 p z 0 O $ & $ $ $ $ & & 2 9 9 i 0 0 w q 9 9 4 0 > & & + & & & & & + 0 x 0 g g p s s s 9 9 9 a a 7 a ",
"9 7 4 p i u p p 4 i s z 0 4 9 i 9 $ & & & O $ & & & : 9 q w 0 0 q w w a 0 9 > & & $ & & & & & & 0 0 0 0 5 0 q 9 9 i i i s d a 7 ",
"i 4 9 p 4 4 5 p 9 a p 0 9 0 9 p 0 $ $ & & & & & & & : 9 9 9 0 0 9 w 0 9 9 0 ; & & & & & & & & & 0 0 p z 0 0 s q 9 a i a i d i 9 ",
"i i 0 p 4 1 0 0 d x 0 8 p s & & & & & & & & & & & & > 9 4 8 w x e w p p 0 p 3 & & & & & & & & & & & & g 5 8 g w 0 i 9 i i i 9 9 ",
"i 4 p p 0 p x z 0 w 0 8 p p & & & & & & & & & & & & > s p s 0 0 h 8 w s p s > & & & & $ & & & $ $ & & z 0 0 x w 9 a 9 i 4 i i 9 ",
"p s x 0 0 w 9 q w 0 w 9 9 9 & & + & & & & & & & $ $ ; 0 s 0 8 0 0 0 0 x g x > $ & & & & & & $ $ $ $ & s 9 9 9 0 < i i i i i 9 0 ",
"p 9 s 9 s q w q s 9 0 w w 9 9 9 7 a i i 4 9 q 9 8 w 9 i x w 9 5 h w x x 0 0 0 g p 4 s x s 8 0 v 0 p s 0 0 9 p 0 9 i i i p d s 0 ",
"s 9 a 7 f 9 q s 0 9 0 s v 9 0 9 i a 9 i < 9 9 a q p i i s s 9 0 0 0 h x z 0 0 0 s 9 w w s q w w p 0 x 0 0 p z p < 9 i 0 s 9 9 i ",
"a 7 a 7 9 9 i s s 9 9 9 8 8 p s i i 4 9 s i a a d p i 9 9 0 0 s 0 5 0 0 x 0 0 0 w q w w w w 0 0 0 0 0 0 0 0 0 0 p a 9 v w 4 4 s ",
"i 7 i i 4 9 i 9 w 9 f p q 8 9 9 i 4 4 9 d s a a 0 i i 9 9 q 9 p s s 8 q s 0 9 w w 8 w h h 8 8 w 0 0 0 5 9 9 0 0 d w 9 w w w 9 9 ",
"u u i d < s 9 9 s 9 a q q , q f i 9 < i i i 7 a 9 7 s p p d q w 0 w w 8 9 0 w s w 8 w w e 8 0 0 p 0 9 0 0 9 9 0 9 q q 6 w 9 9 9 ",
"u u i d 9 a 9 9 9 9 s s a 8 w p s s 9 0 9 9 9 9 i 9 d d s f 9 q 9 0 w w 8 w w w 0 9 w 8 w w p 5 0 0 5 0 p p q q w w w 9 w q a a ",
"i u d p 9 q a q q w f 9 , 9 s s 0 0 0 0 0 9 q 7 d 7 d 9 q q 9 q 0 0 w w w w w 8 0 8 w w 0 0 i z p 0 4 9 9 q q q h q , 9 i 9 6 q "
};
