/* XPM */
static char *_679650823328[] = {
/* columns rows colors chars-per-pixel */
"64 64 152 2 ",
"   c #000000",
".  c #1C0102",
"X  c #3D2B13",
"o  c #731E0F",
"O  c #741E11",
"+  c #5C230F",
"@  c #5C2410",
"#  c #542712",
"$  c #433011",
"%  c #61220E",
"&  c #6C210E",
"*  c #612210",
"=  c #6C2D14",
"-  c #703317",
";  c #7F3E1E",
":  c #2E4C14",
">  c #324E19",
",  c #334D14",
"<  c #2D5C15",
"1  c #2E5D19",
"2  c #325E16",
"3  c #34521A",
"4  c #3A521B",
"5  c #335E1A",
"6  c #3A5E1C",
"7  c #2D6115",
"8  c #2F621A",
"9  c #336216",
"0  c #376817",
"q  c #35631C",
"w  c #39651D",
"e  c #36691E",
"r  c #3A691E",
"t  c #234623",
"y  c #264B25",
"u  c #284C2A",
"i  c #375F20",
"p  c #366521",
"a  c #3A6521",
"s  c #366921",
"d  c #3C6A22",
"f  c #3E6C28",
"g  c #3D7123",
"h  c #7F401D",
"j  c #40651F",
"k  c #406C1E",
"l  c #545B23",
"z  c #6C4B22",
"x  c #7C5126",
"c  c #416621",
"v  c #416C24",
"b  c #436E2B",
"n  c #417225",
"m  c #437129",
"M  c #1B3F6C",
"N  c #3F3766",
"B  c #353A6D",
"V  c #283E73",
"C  c #4F325E",
"Z  c #403867",
"A  c #423664",
"S  c #164151",
"D  c #1A4152",
"F  c #164362",
"G  c #14426D",
"H  c #1A406F",
"J  c #0F4375",
"K  c #0F447E",
"L  c #114374",
"P  c #1B4170",
"I  c #10447E",
"U  c #18467A",
"Y  c #1C497B",
"T  c #1D5178",
"R  c #214076",
"E  c #244D7A",
"W  c #264B77",
"Q  c #324E75",
"!  c #205277",
"~  c #315177",
"^  c #315178",
"/  c #3A676B",
"(  c #5A7F5D",
")  c #547B5E",
"_  c #416B69",
"`  c #416B67",
"'  c #6E6D68",
"]  c #736F66",
"[  c #787266",
"{  c #AE1608",
"}  c #B2170A",
"|  c #B2190A",
" . c #803F1F",
".. c #9F1D35",
"X. c #B4192B",
"o. c #A11D35",
"O. c #D50C06",
"+. c #EE0707",
"@. c #ED0805",
"#. c #E70908",
"$. c #F60406",
"%. c #FF0305",
"&. c #FD0C0A",
"*. c #80401D",
"=. c #894822",
"-. c #9B5829",
";. c #8C632D",
":. c #866E2E",
">. c #8A712F",
",. c #8A7131",
"<. c #947633",
"1. c #957934",
"2. c #AA682E",
"3. c #AA6730",
"4. c #AE6C31",
"5. c #B36E33",
"6. c #BD7B39",
"7. c #BA7636",
"8. c #C66D33",
"9. c #C17C39",
"0. c #CA7D39",
"q. c #5E825A",
"w. c #AC853A",
"e. c #AB8437",
"r. c #C5803B",
"t. c #C9843E",
"y. c #C38E3E",
"u. c #CE893E",
"i. c #EE813B",
"p. c #BFCA2E",
"a. c #BFCF31",
"s. c #E8F11E",
"d. c #F7FD17",
"f. c #F9FC17",
"g. c #C6D62D",
"h. c #CBD92C",
"j. c #C38E40",
"k. c #D48F41",
"l. c #DC9645",
"z. c #D79946",
"x. c #DC9A45",
"c. c #EB8F42",
"v. c #EA9544",
"b. c #E19B46",
"n. c #EA9846",
"m. c #E39E48",
"M. c #E99F49",
"N. c #E8A147",
"B. c #E6A14A",
"V. c #E9A24A",
"C. c #0E4480",
"Z. c #104480",
/* pixels */
"w s d g s e s s s p 5 d i 6 2 p v j c w 6 5 q e r r 9 9 g g r q d g s s p 8 q p q 1 p w q v r r 0 n r e e s q e w 9 p p f p d v ",
"s w e e r e q q 1 q w d w a w w j q w q 6 w 9 9 w d e q e q r r s e s q w q p d w 5 a a w a w w r r 9 e d p q w d q p p i 5 w w ",
"d d e e r d p a q s s k 0 k v j 6 9 v v w w w d w r r s w 8 p p r e 9 9 p a a d a a d c a a 6 q q r r q p p a d q 1 1 8 w q r r ",
"q 9 9 q q q q a s s d d 9 j k 0 q w v v 6 q w w d w w d w w f a d e w p s d a d a a i a a a w 5 2 s s 5 w w w a p p p p s e e e ",
"w w w e e w e s q 5 d f w q w q c w v w q w w q a w w d s p a p q a w w a d w q q w 5 i p i i i d w w q v 5 6 a p p p s p s s e ",
"s 9 q w r q q w q q s s w 6 w q w q w w j v v c w w p s p q a p q a w q w w p 9 q d d a a i p a a a c a b a a a i p q p 8 s d g ",
"d d w d d e e s p r s w p q a a a w v v 9 6 w a q c w w w q p 5 5 a w 6 q r e q s d d 5 i f a a < p f 2 a 6 p a a a q p 8 w e r ",
"w w d d e 7 8 8 w q w w d d w q a w v v r q 5 5 q } %.%.%.%.%.%.%.%.%.%.%.%.%.%.O.p q < i b 5 q d p p q v 6 a b i i p d 9 d d r ",
"e g r 0 r e s q q w < s s q a 6 p p a q 5 5 w a d | %.%.%.%.%.%.%.%.%.%.%.%.%.%.O.q w p s p d < e e w q w d d e d v e e d d d e ",
"e g g s s 8 s s w e 8 p 8 1 6 q w d a 6 6 p w 2 v } %.%.%.%.%.%.%.%.%.%.%.%.%.%.O.d p p q q r r 0 d w q v e 7 8 s s 9 e e e e s ",
"g e g e e e s s d p s s d v p q $.$.$.$.$.$.$.$.$.%.%.%.%.%.%.%.%.%.%.%.%.%.%.%.%.$.$.#.q r q f 8 g w 9 v f e e 9 e e d g e e e ",
"g 7 8 e e g s 9 9 s d s s s w q $.%.%.%.%.%.%.%.%.%.%.%.%.%.%.%.%.%.%.%.%.%.%.%.%.%.%.+.d d 9 d e 9 q q q e e s w s q e s 8 e g ",
"d 2 q r r f d r 9 s s 9 q w r p %.%.%.%.%.%.%.%.%.%.%.%.%.%.%.%.%.%.%.%.%.%.%.%.%.%.%.+.v d 6 r r r r r q 8 s 8 s s 8 s e 8 e g ",
"0 q d d e s d r d d q w p s d r 4 , , 4 4 > 0.c.v.# . . -.v.c.c.c.c.8.O o o o o o o o & w w w w 0 r s e d d s g q s 9 q g e e s ",
"w w w d w 9 e 9 e e v d w q w r j a i 6 6 c j.V.V.X     ;.B.V.V.M.V.6.* * * * * * * * + q 9 w 6 q w q q p p e s p s 8 q 9 8 e g ",
"0 d q r e 9 e 7 d 9 r 9 q s 9 v v c 6 6 c a y.V.V.X     ,.V.V.V.V.V.6.* * * * * * * * @ w q w w m q q w q p s q q p w e s 8 e g ",
"v q q 2 w d r 9 e e r w 0 r r 0 :.>.>.>.,.>.x.V.V.X     ;.V.V.V.V.V.l.9.6.5.* * = 9.9.7.$ $ $ r r v w 2 w d d d w 6 w j w r d 9 ",
"q q w q q q e e q q r q w w w 0 B.V.V.V.N.V.V.V.B.X     ;.V.V.V.V.V.V.V.V.u.* * = V.M.b.* % % w 0 r w q w w q 2 p w w q q w r q ",
"w r d s r g d 0 q q a w r w j w B.V.V.V.V.V.V.V.V.X     ;.V.V.V.V.V.V.V.N.u.* * = V.V.b.* * * a w w r w q a a q q p p q w e q w ",
"w r q r w d r q w w k w w l l l N.N.V.V.V.V.4.3.3.=.z z 6.V.V.V.V.V.k.3.2.-.% * = V.V.m.* * * q w q q q 6 w v v 5 w w w w p w w ",
"9 r w d q w r q w 6 a 6 s V.V.V.V.V.V.V.V.V.- * * 0.B.B.V.V.V.V.V.V.6.* * * * * - V.V.M.* * % q d w p p w w a w a q 6 c w w p w ",
"w r w v s w d w 5 5 i 6 w V.V.V.V.V.V.V.V.V.- * * 0.B.B.V.V.V.V.V.V.6.* * % * * = V.V.m.* * * c d a p w d d k w a 6 a v a w v 2 ",
"s w 9 r k q d w 5 5 w 6 w w.w.w.t.t.t.t.t.t.- * * 3.j.k.x.V.V.V.V.V.t. .*. . . .=.t.t.r.* % * w 6 i w q q w d d r 6 w j j r w q ",
"w w w d r 2 v a i 5 q 2 q 0 d g @ * * * * * % % * * * * 5.V.V.V.V.V.V.V.V.N.V.V.l.* % % * * * 2 6 a a w s r w d k w w 6 q 6 9 v ",
"r e d q s 8 w w 8 w a 5 s s s e * % + * * @ * * * % * % 5.B.V.B.V.V.V.V.V.V.V.B.l.% % * * * + e 1 q e d 0 v v q 6 j w v w q 2 c ",
"r w e 8 s q s w s a q q s 8 e q @ @ + = = = = = = = = = 7.V.V.B.V.V.V.V.V.V.V.V.l.+ + + @ @ + q d r 9 e 9 v v j 6 6 j v q w v c ",
"d s s q q q w w q p 6 8 8 s q w q 2 q z.V.V.V.V.V.B.M.M.V.V.V.V.V.V.V.V.V.V.V.V.y.w e f d f w q v r q q r w w w 6 v j j j j q c ",
"w d p w w q q 5 q p p p 8 8 8 i q q 0 z.V.V.V.V.V.V.B.B.V.V.V.V.V.V.V.V.V.V.V.V.j.0 r e d r d w 0 q 0 e s w w w 9 v j j v r < s ",
"w w r w q p p p q p p s 9 s 8 p s w q z.B.M.M.V.V.N.M.M.M.M.M.M.M.V.V.B.B.B.V.V.y.w d e q 9 d r r w 0 q r w v d 0 r r j v w e r ",
"w s p q q p s p q p 1 5 q s w w q q w s w s s q q { %.%.%.%.%.%.%.%.X.I K N %.%.%.%.%.@.8 w w w r r w q w w r w 0 k r 9 w q e g ",
"e d w q 5 p p 8 p p p q 8 8 q 5 q 9 e e w w w r p { %.%.%.%.%.%.%.%.X.I I Z %.%.%.%.%.@.w s q w r w q r q r 9 9 r n g 0 d 9 9 g ",
"9 p 8 w q d q < 1 p d w s 8 e r d e r w q 1 1 p d { %.%.%.%.%.%.%.%.X.K Z.N %.%.%.%.%.@.d w q q r 9 q v 0 0 j 0 k 9 g n d 2 r d ",
"r f 1 1 < f d 1 9 e w w r q 6 p $.%.%.%.%.%.%.%.%.C I I ..%.%.%.%.%.X.I C.N %.%.%.%.%.%.%.%.$.w w w 6 q r r 9 r w 9 9 g n 0 9 d ",
"e 9 9 f w 1 w f s g d q w p w p $.%.%.%.%.%.%.%.%.C I I o.%.%.%.%.%.X.I I N %.%.%.%.%.%.%.%.%.q w a j j r d e w q w e 9 0 0 r w ",
"d q 8 q q 1 w s e d d q q w 5 5 %.%.%.%.%.%.%.%.%.C I I o.%.%.%.%.%.X.K I N %.%.%.%.%.%.%.%.$.d w w j r 0 0 d k r q 0 q p p q 1 ",
"r s a p d f g q e s s a d $.%.$.%.%.%.%.%.%.%.%.%.C I I I Z.I I I I I I I N %.%.%.%.%.%.%.%.%.%.%.%.j q r w r v v j w v g s p a ",
"q 5 q q q p w w q w q 5 a %.%.%.%.%.%.%.%.%.%.%.%.C I I I I I I K K I I I N %.%.%.%.%.%.%.%.%.%.%.%.r v v 0 r 0 k j 0 9 q w q 5 ",
"d w p q 5 w w v q s a p a %.%.%.%.%.%.%.%.%.%.%.%.C I I C.Z.I I I Z.I I I Z %.%.%.%.%.%.%.%.%.%.%.%.r g k w r 9 k k k r q w a q ",
"a w a w p w q 2 5 i i a a n.n.n.n.n.n.&.%.%.N V V p.s.s.q.K I I I I ) s.s.a.V U B %.%.&.n.n.n.n.n.n.r e 9 j r 0 9 9 w w a 5 w a ",
"v 2 a 5 c w w a d i 5 a d V.N.V.V.V.V.&.%.$.B C.C.g.f.f.q.I I I I I ( d.d.h.I Z.V %.%.&.V.V.V.V.V.N.g e 9 v v 9 w r q a 6 5 a c ",
"d q p a p q p s g e e s p V.V.V.V.V.V.&.%.%.B Z.K g.f.d.q.I I I I I ( d.f.h.K I V %.%.&.V.V.V.V.V.V.k r r n r e r 9 6 w m w 5 a ",
"b p a a q q w w d s w q 1 V.V.V.V.V.M.c.i.0.Q Z.K / _ _ ! I I I K I ! / _ / I I W 0.i.0.V.V.V.V.V.N.q r k r w d 9 w a q p w 5 6 ",
"p 1 p p q w r e w q 2 2 d M.V.V.V.V.V.V.V.V.^ U I I I K I K I I I I I I I I K I Q V.V.V.V.V.V.V.V.V.w q 0 r q s w d d < p p d i ",
"1 i p p q r d q 2 q q j b N.V.V.V.V.V.V.V.V.^ Z.I I I I I K I I I I I I I K I I ^ V.V.V.V.V.V.V.V.V.q q q r q e a w q q v p i 5 ",
"f a w q q w s q q d w q d V.M.V.V.V.B.[ ] ] Y C.I I I I I I I I I I I I I K I I Z.[ ' ] M.V.V.V.V.V.0 w 0 w e g s w 5 1 p 5 5 p ",
"a w q q 9 w s 5 p s q q v V.V.V.V.V.V.E Z.Z.K Z.I I I I I I I K I I I I I I I K Z.Z.Z.U V.V.V.V.V.V.r 0 w w r g f p p 1 p q p p ",
"i 1 q q q d a q 1 w d d w V.V.V.V.V.N.E Z.C.K Z.I K K I J Z.K I K I I I I I I I Z.Z.I Y V.V.V.V.V.V.d w s s e q w w a p b p p 1 ",
"p 5 c v w p a 5 9 q q q 9 <.<.<.1.1.1.Y I I I I I I I K F S D S S D F I I I I I U Z.I U 1.1.1.1.1.1.r q q 1 9 s q w p 5 i < 1 f ",
"a p p f w w w v w 6 w v w q r w 2 w a J C.C.C.I Z.I I C.u r q s w 6 t K I I I I K K C.J r q p w d q q q 5 p d s a 6 5 p q a d w ",
"p p q p q s w k w w a c w w d d w a w M Z.C.Z.Z.I I I K u s q 2 q q t K I Z.I I K C.C.M r w d v w p d f a a d a d p f a q a v s ",
"p 8 q p w w w r w w w w 9 q w q 6 5 3 M M P M M M P G G t q q 7 q 1 y G G P P M M P M M 2 2 5 c a w a 6 5 5 5 a i a a a 8 w f s ",
"p 8 w a p q q r v d c a j j r j @ * * * * * @ * @ > w q q w e r r q s q w 3 * * * @ * * * * * w v w 5 6 i a a 5 i i i i 5 q w q ",
"8 s f s p p p q q q 6 w w j w c @ * * * * * % * * > q q p p d r q r w p 9 , * * * % * * * * * q p w 6 q d d q 5 a a 5 a p q 5 q ",
"8 p f d a p s q r r r w c a 6 w * * * * * * * * * > q a w p 0 0 q w q w q > * * * * * * * * * p p 5 w p w p w w a 5 6 6 p q q p ",
"w q p p d q p p r r q 9 w * * * * * * * * * % * * 3 p w d r r k v w 5 9 q > * * * * * * * * * * * * d a q w v v a 6 2 5 a a q p ",
"q q p 1 p p p 8 s d c w c * * * * * * * % * * * * > d a d w 9 k j w d s s > * * * * * * * * * * * * d a 2 w r r a v w a d a 5 i ",
"w w w p p p p 1 w q q q r * % * * % * % % * * * * 4 j v v w q w w q w d q : % % * * * * * * @ @ % % w q q r w r w w d w w v d w ",
"w d d d p p p p a w w w r s a w n w 9 v d d 6 a w w w w v v j v q q d v p q r 9 e q w 7 w w s 8 q q q e w w q d r q e g w s w a ",
"p q q s q p q 1 a c a c w c w a r r 0 r w d q d w w w v v j a w w 9 w d r p d e s 8 p 1 p q p p q w q v d w 9 w d e 8 s 8 p q s ",
"a 2 q r g w a d w w w w w w w w e r r r q r w s q q d v w w 6 w j q a w q p d d s p p d 8 q p s s r 7 q q e q d g 9 q s p p 8 d ",
"q 5 r r r q r d q q q 6 q 6 q w k 2 9 k k r 9 r c w w s w q s d r q p p 5 p p a s s d f 5 1 5 p q w 9 e s f q e p p p 5 p p 5 p ",
"q p w e 9 q e e w w q w w w w w w q 9 k g k 9 r v 0 w q 9 w s d r e f s d d 1 i w q p q p 5 q a d 0 7 e s s q d q p a 1 f p i i ",
"e s s s q e s 0 r r p p w q w c 5 a d r 0 r 9 w r r 0 q e r q q r w g d f f q p q q q q a w d d d s q e s d q 9 q q s p f a 5 i ",
"9 7 w w w < 0 g e q p a q 6 q d d w q w w r 9 0 9 r r r e e w s e 9 s 8 p s p f 9 r q w q w q r d s 2 1 q g d e w e 8 p f a 5 p "
};
