/* XPM */
static char *e843d144ff7144b9c916739742a4897dpcshFEirMlM1iDrA[] = {
/* columns rows colors chars-per-pixel */
"64 64 78 1 ",
"  c #333026",
". c #363329",
"X c #3B352C",
"o c #3C392D",
"O c #3C3731",
"+ c #3E3A32",
"@ c #433C33",
"# c #423E39",
"$ c #454136",
"% c #484137",
"& c #464239",
"* c #4B453B",
"= c #4D493E",
"- c #50493F",
"; c #4F4941",
": c #504740",
"> c #534D43",
", c #534E48",
"< c #565146",
"1 c #585247",
"2 c #575248",
"3 c #5B554B",
"4 c #5E594D",
"5 c #5C5751",
"6 c #5F5950",
"7 c #605A4E",
"8 c #635D53",
"9 c #645F59",
"0 c #685F58",
"q c #656156",
"w c #686257",
"e c #676358",
"r c #6B655B",
"t c #6D695E",
"y c #716A5F",
"u c #6F6A60",
"i c #706760",
"p c #736D63",
"a c #786F68",
"s c #767165",
"d c #787267",
"f c #777368",
"g c #7B756A",
"h c #7E796D",
"j c #7F7B70",
"k c #817A6E",
"l c #807770",
"z c #837D72",
"x c #887F76",
"c c #887F78",
"v c #868175",
"b c #898276",
"n c #878178",
"m c #8B857A",
"M c #8E897D",
"N c #90877E",
"B c #908A7F",
"V c #8F8A80",
"C c #938D82",
"Z c #988F88",
"A c #969185",
"S c #989187",
"D c #979288",
"F c #9B958B",
"G c #9E998E",
"H c #9F9A90",
"J c #A0998F",
"K c #A39D93",
"L c #A5A196",
"P c #A8A197",
"I c #A7A398",
"U c #AAA59B",
"Y c #AEAA9E",
"T c #AFABA0",
"R c #B0A7A0",
"E c #B3ADA3",
"W c #B5B1A5",
"Q c #B8B1A9",
/* pixels */
"@phiiiiiiaii5:5ambkkkbvvvqtMAMmvMMh==<qettsdyqqqtqtttyvvdyby71--",
";zVzlalaaaii0,3ZBvkddspdsyBLHHGAAGG22GLYYYYWYYLLBMMMbMBBYBBBBd%-",
":jczljljjaiia0:ady8wwwwwssHGAVMvvvM2vWvhkvvvvvkvvhssyyddvvvbBMw=",
":zcccclllaaii0#idyyyywryhpAMvvvvvvv2VVjMkvkvkkkhhhhhvdddvvvydvyo",
";ccVNccclaaaai#ikdyyrrtygtMMMvvvMvh4vvvhvhvvdvdvdhddddydskskyyw%",
",VcVNccclllaii#8lpyyytykjtMMvvjhsjs<jVvvvvddddyddddsssty7ykyvvy%",
"5HZZVNccclagi8XidpyyytykMshvvvvjvvt<hMjvddddddkydhddyyyy7wykyww-",
"8JZVcccllllazl#illdaldlkbtsvhhhjftq2hfMMvvddddyksyyyttyyywwwkkv%",
"5NchZJZZccccca:0lxxzay073:**;><142==gzzBmgygkyyyyyyyyyyyywkwyky%",
":cKQRJZZZZZNVi:#117--7rpgkmCACBZGBMqskxBbdygyykyyykkyyyyyskyyyw%",
"#80aiii57ialVi>,SZJJNNNBCCCCCBCZGLLqpgkMvyygyyyskyyyykywyyykrr7%",
":cci0iaiai75i0>rJNxcbNNBCBCCBMCNBBBqwdzBvdydkksyykykyyywkkskyrw%",
",clcVcalllza80:0ZxzmmmbmxMCCCNNNMBBrqybBbkdkdkdyydkyyykkkyrlyrr@",
":cclalllljlg0a:0NxxcmmMCCCCCCCCCMBArqrbxvbvkdkkddyykkkykkklyyrr%",
";jccllcllccaii#iczxNccxmNNCZJSSBGAGw7rbzkvkkkkdkkyydkykyrkykyrr@",
"#acclhaaaia0rr70NxxcmNmNmNCSSSJJUAAt7pzkkkkkvkkdsddkkykkyylkykr%",
"#>7111-:---=--11bbbBMMBBBSSSZJJFGAGtqfvfhhvhvhhhyykksfhfhhhhsht$",
",@rpyaplvdywwq11-77yyybJJJSJJJNSMAGq=thvjfsfffffsydksfhsyeettuqo",
">zQJCSBNbBBBBBKBBBbBbd7-0gmk0r87qtt<=<4q4<=<==<<4-7qqq7<==<=<==$",
"#NCpldllsdddvvvvBBBBbBJd**>0yrypffftq<<&<ffhhhfsdsdvkvvhvvvstq<=",
"%kvkkzkkddddshhhdkdykdkm1FSCJLLKLGAAGALthLGAAAAABBBBBLLLLILHGMq&",
"-kbzdzkkhddssshhkdkkdkvyyFggshffshvvMMLf4hhfvvhMBBBBBGLYLLLHYLu=",
"*sgdkkydsyssshvhkdkkddkyrp8sssffhhjvMvMt4fvhvhhvbbMBBGGLHHLLYLf=",
"*kkddykysysdshhsdkddkkky8wyrdpfjhvvhvMft<tvjhhhhvbbMBLBBVALLWYj<",
"-vkkhfhssfddfffhkkkdfhhq4eeytsfhhvhvMvhq4qfvhvhhjvvMMAAAAVvGGAj=",
"7kvksssfssffhhfsddddhfh77twytsfhhvhvvvhq4qtvhhhhhjvvMVAAAAVVjeq&",
"1dkdshfhsffffffhdsgvssv44twtusffhvvvvMvq4ttvvhsfhhvMMVAAVVVAvet<",
"-dydhfsttshkjhhjvhyyhvfq8tqtusshhhvvvMhq4qtvhvfffhvvMVVVMMMAAst=",
"=7<4==<4-4qqeeqq744==4q=4tepssfjvvvvvMh44qqvhvhhffhvMMMvvMMVvtt=",
"$$<ptte4qq44eteqtss44-=&4tepsffjvhvvMMh4<4qvvhhhhhhvvMvMMMAAvft<",
"o3fvpsfhhhhvMvvjkhhhjvv<2ttpufhjhvvvAAh4<q4hvhhhhvvvMMMAVVAAvfq=",
"-vy8qqeqqqetssfhfhdhhjMq2ttssffjhvMvAAs4<q<qhhvMvvMAAAAAGAAAAh4<",
"<feteeteeeeuffjffhhfhfjt2suuffhjhvMMMAs4=4<;=<4q4ttqttqeeqqq44<=",
"=tqteeeeteutffjjjjfsffht,ueusfhjhvMAALh<=q462=#+o#o#=$===q4===&=",
"=tetteeeetuusfjffsfuuufqfvsttsfvhMvAAGs<6Vnvjfs2jjfAHGGvjLYGAMj2",
"=etutttttuefuffhutuffff4tjhfjfustvMAGLh<5mjvjuuqMAHGGGMhvvhvvMmq",
"&ettutttuufffuuffuffftfqtnjjnmnVGhvLGLv=envjjftevLGMhvhkvhfvjhj4",
"&euusutufujfjuffffffttf5tmnnnmMCGGhsMLv=qvhfghfqMGvhhvvhdvvhjvvq",
"&efuuutfusffffgguuffttf2eVMnmmMDGGYAtqt<ejtssufevAvMvvksvvvvvvhs",
"&effssufsfusufsufufutef4eVVMVVCFGLGYLs444vuttuhqjMvMhvkhvhvvjvMu",
"&effffufpyypgdffffuusts<rmCnCAzhvAGAs4444Mstphh<kBbvvvkkhhvvkbby",
"oqffffffpaglgdfutufuttu<7SMmt<43<4tq<=<=<q<4474$7bbkvkyydvvvkbb7",
"&ejfffjfakkgdgghusufuuf4>rd78agp=$==$===$oo=-<=+7bvvkkykvvvvbMb7",
"oqhjjfjhggggggfufsuutttq0711pp3>tvMAGAh<<qshfgq$yNkkkyykdvvvbbb7",
"o=2=&&o&@@@@%%&*o$&<==4epdp**X0JAGAMAGLvqsfsttq+kbvkkykvkvvbMbk7",
"..o$244qwwwrrtshmmMDAGLYSyr1@8JCMvvvvMMAqhtsstq$wbkkkkkkkvvbbbk1",
" o$sGAGACCSFSCCAABmmzvhjNF7N0dSCvMMMvAAAqhtsteq&7vkkkykkkvbvbbk-",
"o<=vMfjjgzzzzxzkkkjffjjvxx0l7pJCMMhMMAAM=tssst4+7vkkyykkvbbbbBk-",
"&<eMhjjzzlzlxxxllkgklxxbmgsz>iFFMMmbNNJB380aai0:1NkkkkkvvbbbbBv1",
"o=qjjvnzkzllllllklglzxnmggag1rKSmMmmmmSC1l80ia0-1wvkvkkkvvvvbbv7",
".&qfjvvjkzlllklzkgggkxmxcggg7wBbBBMmNbCB3li,8ia:7kwvkvkkvvvbbbv1",
" &5tvvvjzzxzkllxlkaggcmxzpsg>-kZBBmBNmJB1pira3i#bBkkkkkkkkvvbbv1",
"o&4tVvvvxxbbzklxlkggzmmcxxpgy>NBMBBBNmSm1pi0d08*kBBkkkkkkkkbbbv7",
"#&4eVnvMbbbbxxxkzggkcmccNZmrr>ZZBBBBBBSk1l000ya*kBBbkvykkkdkbbd7",
"#&4qvnvnbbmmmmxzzzzcmmmVCCSwy-077--77ry:178arpr-kBNbkkkkkdkbvbd7",
"#=4qnVnnbbmmNNbxxcNCCCVZZCByr@rxvhvdylNi-0artyy$yBBvkkkkkkdvbbd7",
"+*5emxNcbNbbxNNNmVZZZZFZMmFi8=jjdvkvMMGKqyytyyp$yBbbkkkkddbbbby1",
"+$,eNNcVNNNBNNBBZZVVZJFZCbga8*ffddvfhMvB7ydytyy%yBbbkkbkkdyvbbd1",
"+&3eNCmVBBBNNbBbNZJFFKFZc454i>ffhfhhvvmG17ywyyy%yBbbbkkkddbkbBk1",
".#88amVCBBJBSZJkKKKKJZJF858ia3gjsffhvMMh-=yyyyd%yBbbbkkkkkbvbky7",
"O:660zZCFFJFJJSlRRRRUUKg,0dzf6sfhhvjvMtt1o7vddd$yMbbbkkbbkkBbyb7",
"O+55>8iii00000rrJKFZZZV30xznj<vhjjvvvqqM7<-ydd7$ybbkkkkkkbbbdbB7",
"##,,##::*:rgai780,:,,:175api<$4fsvhht4hA1y71w1=$wkkyywywydywdy71",
"#OOO@+#::*,,::@#,37,,3:1##:+$o&<424q=<q=$77o17y-17711%%==----771"
};
